<?xml version="1.0" encoding="UTF-8"?>
<svg xmlns="http://www.w3.org/2000/svg"
     xmlns:xlink="http://www.w3.org/1999/xlink"
     xmlns:gadfly="http://www.gadflyjl.org/ns"
     version="1.2"
     width="180mm" height="120mm" viewBox="0 0 180 120"
     stroke="none"
     fill="#000000"
     stroke-width="0.3"
     font-size="3.88"
>
<g class="plotroot xscalable yscalable" id="fig-a009a9c8516b411db03532906fe34600-element-1">
  <g font-size="4.23" font-family="'Latin Modern Math','Latin-Modern',serif" fill="#564A55" stroke="#000000" stroke-opacity="0.000" id="fig-a009a9c8516b411db03532906fe34600-element-2">
    <text x="157.94" y="108.94" text-anchor="end" dy="0.35em" transform="rotate(-90, 157.94, 108.94)">β</text>
  </g>
  <g class="guide xlabels" font-size="2.82" font-family="'Latin Modern Math','Latin-Modern',serif" fill="#6C606B" id="fig-a009a9c8516b411db03532906fe34600-element-3">
    <text x="142.89" y="104.94" text-anchor="middle">0</text>
    <text x="148.91" y="104.94" text-anchor="middle">10</text>
    <text x="154.93" y="104.94" text-anchor="middle">20</text>
    <text x="160.96" y="104.94" text-anchor="middle">30</text>
    <text x="166.98" y="104.94" text-anchor="middle">40</text>
    <text x="173" y="104.94" text-anchor="middle">50</text>
  </g>
  <g clip-path="url(#fig-a009a9c8516b411db03532906fe34600-element-5)" id="fig-a009a9c8516b411db03532906fe34600-element-4">
    <g pointer-events="visible" opacity="1" fill="#000000" fill-opacity="0.000" stroke="#000000" stroke-opacity="0.000" class="guide background" id="fig-a009a9c8516b411db03532906fe34600-element-6">
      <rect x="140.89" y="72.98" width="34.11" height="28.31"/>
    </g>
    <g class="guide ygridlines xfixed" stroke-dasharray="0.5,0.5" stroke-width="0.2" stroke="#D0D0E0" id="fig-a009a9c8516b411db03532906fe34600-element-7">
      <path fill="none" d="M140.89,99.29 L 175 99.29"/>
      <path fill="none" d="M140.89,93.21 L 175 93.21"/>
      <path fill="none" d="M140.89,87.13 L 175 87.13"/>
      <path fill="none" d="M140.89,81.06 L 175 81.06"/>
      <path fill="none" d="M140.89,74.98 L 175 74.98"/>
    </g>
    <g class="guide xgridlines yfixed" stroke-dasharray="0.5,0.5" stroke-width="0.2" stroke="#D0D0E0" id="fig-a009a9c8516b411db03532906fe34600-element-8">
      <path fill="none" d="M142.89,72.98 L 142.89 101.29"/>
      <path fill="none" d="M148.91,72.98 L 148.91 101.29"/>
      <path fill="none" d="M154.93,72.98 L 154.93 101.29"/>
      <path fill="none" d="M160.96,72.98 L 160.96 101.29"/>
      <path fill="none" d="M166.98,72.98 L 166.98 101.29"/>
      <path fill="none" d="M173,72.98 L 173 101.29"/>
    </g>
    <g class="plotpanel" id="fig-a009a9c8516b411db03532906fe34600-element-9">
      <g stroke-width="0.71" fill="#000000" fill-opacity="0.000" class="geometry" stroke="#00BFFF" id="fig-a009a9c8516b411db03532906fe34600-element-10">
        <path fill="none" d="M142.89,99.29 L 142.95 99.14 143.01 98.72 143.07 98.07 143.13 97.26 143.19 96.35 143.25 95.39 143.31 94.44 143.37 93.53 143.43 92.68 143.49 91.9 143.55 91.21 143.61 90.59 143.67 90.06 143.73 89.59 143.79 89.19 143.85 88.85 143.91 88.56 143.97 88.31 144.03 88.1 144.09 87.92 144.15 87.77 144.21 87.64 144.28 87.53 144.34 87.43 144.4 87.35 144.46 87.28 144.52 87.22 144.58 87.17 144.64 87.12 144.7 87.08 144.76 87.04 144.82 87.01 144.88 86.98 144.94 86.95 145 86.93 145.06 86.9 145.12 86.88 145.18 86.85 145.24 86.83 145.3 86.81 145.36 86.79 145.42 86.77 145.48 86.75 145.54 86.73 145.6 86.71 145.66 86.69 145.72 86.67 145.78 86.65 145.84 86.63 145.9 86.61 145.96 86.58 146.02 86.56 146.08 86.54 146.14 86.52 146.2 86.5 146.26 86.47 146.32 86.45 146.38 86.43 146.44 86.4 146.5 86.38 146.56 86.35 146.62 86.33 146.68 86.31 146.74 86.28 146.8 86.25 146.86 86.23 146.92 86.2 146.98 86.18 147.05 86.15 147.11 86.12 147.17 86.09 147.23 86.07 147.29 86.04 147.35 86.01 147.41 85.98 147.47 85.95 147.53 85.92 147.59 85.89 147.65 85.87 147.71 85.84 147.77 85.81 147.83 85.77 147.89 85.74 147.95 85.71 148.01 85.68 148.07 85.65 148.13 85.62 148.19 85.59 148.25 85.56 148.31 85.52 148.37 85.49 148.43 85.46 148.49 85.42 148.55 85.39 148.61 85.36 148.67 85.32 148.73 85.29 148.79 85.26 148.85 85.22 148.91 85.19 148.97 85.15 149.03 85.12 149.09 85.08 149.15 85.05 149.21 85.01 149.27 84.98 149.33 84.94 149.39 84.91 149.45 84.87 149.51 84.83 149.57 84.8 149.63 84.76 149.69 84.73 149.76 84.69 149.82 84.65 149.88 84.62 149.94 84.58 150 84.54 150.06 84.5 150.12 84.47 150.18 84.43 150.24 84.39 150.3 84.35 150.36 84.32 150.42 84.28 150.48 84.24 150.54 84.2 150.6 84.16 150.66 84.13 150.72 84.09 150.78 84.05 150.84 84.01 150.9 83.97 150.96 83.93 151.02 83.89 151.08 83.86 151.14 83.82 151.2 83.78 151.26 83.74 151.32 83.7 151.38 83.66 151.44 83.62 151.5 83.58 151.56 83.54 151.62 83.51 151.68 83.47 151.74 83.43 151.8 83.39 151.86 83.35 151.92 83.31 151.98 83.27 152.04 83.23 152.1 83.19 152.16 83.15 152.22 83.11 152.28 83.07 152.34 83.03 152.4 83 152.46 82.96 152.53 82.92 152.59 82.88 152.65 82.84 152.71 82.8 152.77 82.76 152.83 82.72 152.89 82.68 152.95 82.64 153.01 82.6 153.07 82.56 153.13 82.53 153.19 82.49 153.25 82.45 153.31 82.41 153.37 82.37 153.43 82.33 153.49 82.29 153.55 82.25 153.61 82.22 153.67 82.18 153.73 82.14 153.79 82.1 153.85 82.06 153.91 82.02 153.97 81.99 154.03 81.95 154.09 81.91 154.15 81.87 154.21 81.83 154.27 81.8 154.33 81.76 154.39 81.72 154.45 81.68 154.51 81.65 154.57 81.61 154.63 81.57 154.69 81.53 154.75 81.5 154.81 81.46 154.87 81.42 154.93 81.39 154.99 81.35 155.05 81.31 155.11 81.28 155.17 81.24 155.24 81.2 155.3 81.17 155.36 81.13 155.42 81.09 155.48 81.06 155.54 81.02 155.6 80.99 155.66 80.95 155.72 80.92 155.78 80.88 155.84 80.84 155.9 80.81 155.96 80.77 156.02 80.74 156.08 80.7 156.14 80.67 156.2 80.64 156.26 80.6 156.32 80.57 156.38 80.53 156.44 80.5 156.5 80.46 156.56 80.43 156.62 80.4 156.68 80.36 156.74 80.33 156.8 80.3 156.86 80.26 156.92 80.23 156.98 80.2 157.04 80.16 157.1 80.13 157.16 80.1 157.22 80.07 157.28 80.03 157.34 80 157.4 79.97 157.46 79.94 157.52 79.91 157.58 79.88 157.64 79.84 157.7 79.81 157.76 79.78 157.82 79.75 157.88 79.72 157.94 79.69 158.01 79.66 158.07 79.63 158.13 79.6 158.19 79.57 158.25 79.54 158.31 79.51 158.37 79.48 158.43 79.45 158.49 79.42 158.55 79.39 158.61 79.36 158.67 79.33 158.73 79.3 158.79 79.27 158.85 79.24 158.91 79.21 158.97 79.19 159.03 79.16 159.09 79.13 159.15 79.1 159.21 79.07 159.27 79.05 159.33 79.02 159.39 78.99 159.45 78.96 159.51 78.94 159.57 78.91 159.63 78.88 159.69 78.86 159.75 78.83 159.81 78.8 159.87 78.78 159.93 78.75 159.99 78.72 160.05 78.7 160.11 78.67 160.17 78.65 160.23 78.62 160.29 78.6 160.35 78.57 160.41 78.55 160.47 78.52 160.53 78.5 160.59 78.47 160.65 78.45 160.72 78.42 160.78 78.4 160.84 78.37 160.9 78.35 160.96 78.33 161.02 78.3 161.08 78.28 161.14 78.26 161.2 78.23 161.26 78.21 161.32 78.19 161.38 78.16 161.44 78.14 161.5 78.12 161.56 78.1 161.62 78.07 161.68 78.05 161.74 78.03 161.8 78.01 161.86 77.99 161.92 77.96 161.98 77.94 162.04 77.92 162.1 77.9 162.16 77.88 162.22 77.86 162.28 77.84 162.34 77.82 162.4 77.79 162.46 77.77 162.52 77.75 162.58 77.73 162.64 77.71 162.7 77.69 162.76 77.67 162.82 77.65 162.88 77.63 162.94 77.61 163 77.59 163.06 77.58 163.12 77.56 163.18 77.54 163.24 77.52 163.3 77.5 163.36 77.48 163.43 77.46 163.49 77.44 163.55 77.43 163.61 77.41 163.67 77.39 163.73 77.37 163.79 77.35 163.85 77.34 163.91 77.32 163.97 77.3 164.03 77.28 164.09 77.27 164.15 77.25 164.21 77.23 164.27 77.21 164.33 77.2 164.39 77.18 164.45 77.16 164.51 77.15 164.57 77.13 164.63 77.12 164.69 77.1 164.75 77.08 164.81 77.07 164.87 77.05 164.93 77.04 164.99 77.02 165.05 77 165.11 76.99 165.17 76.97 165.23 76.96 165.29 76.94 165.35 76.93 165.41 76.91 165.47 76.9 165.53 76.88 165.59 76.87 165.65 76.85 165.71 76.84 165.77 76.83 165.83 76.81 165.89 76.8 165.95 76.78 166.01 76.77 166.07 76.76 166.13 76.74 166.2 76.73 166.26 76.71 166.32 76.7 166.38 76.69 166.44 76.67 166.5 76.66 166.56 76.65 166.62 76.64 166.68 76.62 166.74 76.61 166.8 76.6 166.86 76.58 166.92 76.57 166.98 76.56 167.04 76.55 167.1 76.54 167.16 76.52 167.22 76.51 167.28 76.5 167.34 76.49 167.4 76.48 167.46 76.46 167.52 76.45 167.58 76.44 167.64 76.43 167.7 76.42 167.76 76.41 167.82 76.39 167.88 76.38 167.94 76.37 168 76.36 168.06 76.35 168.12 76.34 168.18 76.33 168.24 76.32 168.3 76.31 168.36 76.3 168.42 76.29 168.48 76.28 168.54 76.27 168.6 76.26 168.66 76.25 168.72 76.24 168.78 76.23 168.84 76.22 168.91 76.21 168.97 76.2 169.03 76.19 169.09 76.18 169.15 76.17 169.21 76.16 169.27 76.15 169.33 76.14 169.39 76.13 169.45 76.12 169.51 76.11 169.57 76.1 169.63 76.09 169.69 76.08 169.75 76.08 169.81 76.07 169.87 76.06 169.93 76.05 169.99 76.04 170.05 76.03 170.11 76.02 170.17 76.02 170.23 76.01 170.29 76 170.35 75.99 170.41 75.98 170.47 75.97 170.53 75.97 170.59 75.96 170.65 75.95 170.71 75.94 170.77 75.93 170.83 75.93 170.89 75.92 170.95 75.91 171.01 75.9 171.07 75.9 171.13 75.89 171.19 75.88 171.25 75.87 171.31 75.87 171.37 75.86 171.43 75.85 171.49 75.85 171.55 75.84 171.61 75.83 171.68 75.82 171.74 75.82 171.8 75.81 171.86 75.8 171.92 75.8 171.98 75.79 172.04 75.78 172.1 75.78 172.16 75.77 172.22 75.76 172.28 75.76 172.34 75.75 172.4 75.75 172.46 75.74 172.52 75.73 172.58 75.73 172.64 75.72 172.7 75.71 172.76 75.71 172.82 75.7 172.88 75.7 172.94 75.69 173 75.68"/>
      </g>
    </g>
  </g>
  <g class="guide ylabels" font-size="2.82" font-family="'Latin Modern Math','Latin-Modern',serif" fill="#6C606B" id="fig-a009a9c8516b411db03532906fe34600-element-11">
    <text x="139.89" y="99.29" text-anchor="end" dy="0.35em">0.0</text>
    <text x="139.89" y="93.21" text-anchor="end" dy="0.35em">0.5</text>
    <text x="139.89" y="87.13" text-anchor="end" dy="0.35em">1.0</text>
    <text x="139.89" y="81.06" text-anchor="end" dy="0.35em">1.5</text>
    <text x="139.89" y="74.98" text-anchor="end" dy="0.35em">2.0</text>
  </g>
  <g font-size="4.23" font-family="'Latin Modern Math','Latin-Modern',serif" fill="#564A55" stroke="#000000" stroke-opacity="0.000" id="fig-a009a9c8516b411db03532906fe34600-element-12">
    <text x="129.99" y="85.13" text-anchor="middle" dy="0.35em" transform="rotate(-90, 129.99, 87.13)">D<tspan style="dominant-baseline:inherit" dy="0.6em" font-size="83%">KL</tspan><tspan dy="-0.498000em">(p||p0) [bits]</tspan></text>
  </g>
  <g font-size="4.23" font-family="'Latin Modern Math','Latin-Modern',serif" fill="#564A55" stroke="#000000" stroke-opacity="0.000" id="fig-a009a9c8516b411db03532906fe34600-element-13">
    <text x="157.94" y="70.98" text-anchor="middle">KL-divergence</text>
  </g>
</g>
<g class="plotroot yscalable" id="fig-a009a9c8516b411db03532906fe34600-element-14">
  <g font-size="4.23" font-family="'Latin Modern Math','Latin-Modern',serif" fill="#564A55" stroke="#000000" stroke-opacity="0.000" id="fig-a009a9c8516b411db03532906fe34600-element-15">
    <text x="96.95" y="112" text-anchor="middle">a</text>
  </g>
  <g class="guide xlabels" font-size="2.82" font-family="'Latin Modern Math','Latin-Modern',serif" fill="#6C606B" id="fig-a009a9c8516b411db03532906fe34600-element-16">
    <text x="83.41" y="104.02" text-anchor="middle">a1</text>
    <text x="92.44" y="104.02" text-anchor="middle">a2</text>
    <text x="101.46" y="104.02" text-anchor="middle">a3</text>
    <text x="110.49" y="104.02" text-anchor="middle">a4</text>
  </g>
  <g clip-path="url(#fig-a009a9c8516b411db03532906fe34600-element-18)" id="fig-a009a9c8516b411db03532906fe34600-element-17">
    <g pointer-events="visible" opacity="1" fill="#000000" fill-opacity="0.000" stroke="#000000" stroke-opacity="0.000" class="guide background" id="fig-a009a9c8516b411db03532906fe34600-element-19">
      <rect x="78.9" y="72.98" width="36.1" height="27.39"/>
    </g>
    <g class="guide ygridlines xfixed" stroke-dasharray="0.5,0.5" stroke-width="0.2" stroke="#D0D0E0" id="fig-a009a9c8516b411db03532906fe34600-element-20">
      <path fill="none" d="M78.9,98.37 L 115 98.37"/>
      <path fill="none" d="M78.9,86.67 L 115 86.67"/>
      <path fill="none" d="M78.9,74.98 L 115 74.98"/>
    </g>
    <g class="guide xgridlines yfixed" stroke-dasharray="0.5,0.5" stroke-width="0.2" stroke="#D0D0E0" id="fig-a009a9c8516b411db03532906fe34600-element-21">
      <path fill="none" d="M87.93,72.98 L 87.93 100.37"/>
      <path fill="none" d="M96.95,72.98 L 96.95 100.37"/>
      <path fill="none" d="M105.98,72.98 L 105.98 100.37"/>
    </g>
    <g class="plotpanel" id="fig-a009a9c8516b411db03532906fe34600-element-22">
      <g shape-rendering="crispEdges" stroke-width="0.3" id="fig-a009a9c8516b411db03532906fe34600-element-23">
        <g stroke="#000000" stroke-opacity="0.000" fill="#00BFFF" class="geometry" id="fig-a009a9c8516b411db03532906fe34600-element-24">
          <rect x="79.08" y="98.11" width="8.67" height="0.26"/>
          <rect x="88.1" y="98.37" width="8.67" height="0.01"/>
          <rect x="97.13" y="98.37" width="8.67" height="0.01"/>
          <rect x="106.15" y="75.24" width="8.67" height="23.13"/>
        </g>
      </g>
    </g>
  </g>
  <g class="guide ylabels" font-size="2.82" font-family="'Latin Modern Math','Latin-Modern',serif" fill="#6C606B" id="fig-a009a9c8516b411db03532906fe34600-element-25">
    <text x="77.9" y="98.37" text-anchor="end" dy="0.35em">0.0</text>
    <text x="77.9" y="86.67" text-anchor="end" dy="0.35em">0.5</text>
    <text x="77.9" y="74.98" text-anchor="end" dy="0.35em">1.0</text>
  </g>
  <g font-size="4.23" font-family="'Latin Modern Math','Latin-Modern',serif" fill="#564A55" stroke="#000000" stroke-opacity="0.000" id="fig-a009a9c8516b411db03532906fe34600-element-26">
    <text x="68.99" y="84.67" text-anchor="middle" dy="0.35em" transform="rotate(-90, 68.99, 86.67)">p*(a)</text>
  </g>
  <g font-size="4.23" font-family="'Latin Modern Math','Latin-Modern',serif" fill="#564A55" stroke="#000000" stroke-opacity="0.000" id="fig-a009a9c8516b411db03532906fe34600-element-27">
    <text x="96.95" y="70.98" text-anchor="middle">Posterior, β=45</text>
  </g>
</g>
<g class="plotroot yscalable" id="fig-a009a9c8516b411db03532906fe34600-element-28">
  <g font-size="4.23" font-family="'Latin Modern Math','Latin-Modern',serif" fill="#564A55" stroke="#000000" stroke-opacity="0.000" id="fig-a009a9c8516b411db03532906fe34600-element-29">
    <text x="36.95" y="112" text-anchor="middle">a</text>
  </g>
  <g class="guide xlabels" font-size="2.82" font-family="'Latin Modern Math','Latin-Modern',serif" fill="#6C606B" id="fig-a009a9c8516b411db03532906fe34600-element-30">
    <text x="23.41" y="104.02" text-anchor="middle">a1</text>
    <text x="32.44" y="104.02" text-anchor="middle">a2</text>
    <text x="41.46" y="104.02" text-anchor="middle">a3</text>
    <text x="50.49" y="104.02" text-anchor="middle">a4</text>
  </g>
  <g clip-path="url(#fig-a009a9c8516b411db03532906fe34600-element-32)" id="fig-a009a9c8516b411db03532906fe34600-element-31">
    <g pointer-events="visible" opacity="1" fill="#000000" fill-opacity="0.000" stroke="#000000" stroke-opacity="0.000" class="guide background" id="fig-a009a9c8516b411db03532906fe34600-element-33">
      <rect x="18.9" y="72.98" width="36.1" height="27.39"/>
    </g>
    <g class="guide ygridlines xfixed" stroke-dasharray="0.5,0.5" stroke-width="0.2" stroke="#D0D0E0" id="fig-a009a9c8516b411db03532906fe34600-element-34">
      <path fill="none" d="M18.9,98.37 L 55 98.37"/>
      <path fill="none" d="M18.9,86.67 L 55 86.67"/>
      <path fill="none" d="M18.9,74.98 L 55 74.98"/>
    </g>
    <g class="guide xgridlines yfixed" stroke-dasharray="0.5,0.5" stroke-width="0.2" stroke="#D0D0E0" id="fig-a009a9c8516b411db03532906fe34600-element-35">
      <path fill="none" d="M27.93,72.98 L 27.93 100.37"/>
      <path fill="none" d="M36.95,72.98 L 36.95 100.37"/>
      <path fill="none" d="M45.98,72.98 L 45.98 100.37"/>
    </g>
    <g class="plotpanel" id="fig-a009a9c8516b411db03532906fe34600-element-36">
      <g shape-rendering="crispEdges" stroke-width="0.3" id="fig-a009a9c8516b411db03532906fe34600-element-37">
        <g stroke="#000000" stroke-opacity="0.000" fill="#00BFFF" class="geometry" id="fig-a009a9c8516b411db03532906fe34600-element-38">
          <rect x="19.08" y="88.16" width="8.67" height="10.21"/>
          <rect x="28.1" y="97.85" width="8.67" height="0.52"/>
          <rect x="37.13" y="96.99" width="8.67" height="1.38"/>
          <rect x="46.15" y="87.09" width="8.67" height="11.28"/>
        </g>
      </g>
    </g>
  </g>
  <g class="guide ylabels" font-size="2.82" font-family="'Latin Modern Math','Latin-Modern',serif" fill="#6C606B" id="fig-a009a9c8516b411db03532906fe34600-element-39">
    <text x="17.9" y="98.37" text-anchor="end" dy="0.35em">0.0</text>
    <text x="17.9" y="86.67" text-anchor="end" dy="0.35em">0.5</text>
    <text x="17.9" y="74.98" text-anchor="end" dy="0.35em">1.0</text>
  </g>
  <g font-size="4.23" font-family="'Latin Modern Math','Latin-Modern',serif" fill="#564A55" stroke="#000000" stroke-opacity="0.000" id="fig-a009a9c8516b411db03532906fe34600-element-40">
    <text x="8.99" y="84.67" text-anchor="middle" dy="0.35em" transform="rotate(-90, 8.99, 86.67)">p*(a)</text>
  </g>
  <g font-size="4.23" font-family="'Latin Modern Math','Latin-Modern',serif" fill="#564A55" stroke="#000000" stroke-opacity="0.000" id="fig-a009a9c8516b411db03532906fe34600-element-41">
    <text x="36.95" y="70.98" text-anchor="middle">Posterior, β=1</text>
  </g>
</g>
<g class="plotroot xscalable yscalable" id="fig-a009a9c8516b411db03532906fe34600-element-42">
  <g font-size="4.23" font-family="'Latin Modern Math','Latin-Modern',serif" fill="#564A55" stroke="#000000" stroke-opacity="0.000" id="fig-a009a9c8516b411db03532906fe34600-element-43">
    <text x="156.95" y="52" text-anchor="middle">β</text>
  </g>
  <g class="guide xlabels" font-size="2.82" font-family="'Latin Modern Math','Latin-Modern',serif" fill="#6C606B" id="fig-a009a9c8516b411db03532906fe34600-element-44">
    <text x="140.9" y="44.02" text-anchor="middle">0</text>
    <text x="147.32" y="44.02" text-anchor="middle">10</text>
    <text x="153.74" y="44.02" text-anchor="middle">20</text>
    <text x="160.16" y="44.02" text-anchor="middle">30</text>
    <text x="166.58" y="44.02" text-anchor="middle">40</text>
    <text x="173" y="44.02" text-anchor="middle">50</text>
  </g>
  <g clip-path="url(#fig-a009a9c8516b411db03532906fe34600-element-46)" id="fig-a009a9c8516b411db03532906fe34600-element-45">
    <g pointer-events="visible" opacity="1" fill="#000000" fill-opacity="0.000" stroke="#000000" stroke-opacity="0.000" class="guide background" id="fig-a009a9c8516b411db03532906fe34600-element-47">
      <rect x="138.9" y="12.98" width="36.1" height="27.39"/>
    </g>
    <g class="guide ygridlines xfixed" stroke-dasharray="0.5,0.5" stroke-width="0.2" stroke="#D0D0E0" id="fig-a009a9c8516b411db03532906fe34600-element-48">
      <path fill="none" d="M138.9,38.37 L 175 38.37"/>
      <path fill="none" d="M138.9,32.52 L 175 32.52"/>
      <path fill="none" d="M138.9,26.67 L 175 26.67"/>
      <path fill="none" d="M138.9,20.83 L 175 20.83"/>
      <path fill="none" d="M138.9,14.98 L 175 14.98"/>
    </g>
    <g class="guide xgridlines yfixed" stroke-dasharray="0.5,0.5" stroke-width="0.2" stroke="#D0D0E0" id="fig-a009a9c8516b411db03532906fe34600-element-49">
      <path fill="none" d="M140.9,12.98 L 140.9 40.37"/>
      <path fill="none" d="M147.32,12.98 L 147.32 40.37"/>
      <path fill="none" d="M153.74,12.98 L 153.74 40.37"/>
      <path fill="none" d="M160.16,12.98 L 160.16 40.37"/>
      <path fill="none" d="M166.58,12.98 L 166.58 40.37"/>
      <path fill="none" d="M173,12.98 L 173 40.37"/>
    </g>
    <g class="plotpanel" id="fig-a009a9c8516b411db03532906fe34600-element-50">
      <g stroke-width="0.71" fill="#000000" fill-opacity="0.000" class="geometry" stroke="#00BFFF" id="fig-a009a9c8516b411db03532906fe34600-element-51">
        <path fill="none" d="M140.9,35.09 L 140.96 33.1 141.03 31.22 141.09 29.49 141.16 27.94 141.22 26.58 141.29 25.42 141.35 24.44 141.41 23.63 141.48 22.96 141.54 22.42 141.61 21.97 141.67 21.62 141.73 21.33 141.8 21.1 141.86 20.92 141.93 20.77 141.99 20.65 142.06 20.56 142.12 20.48 142.18 20.42 142.25 20.37 142.31 20.33 142.38 20.3 142.44 20.27 142.51 20.25 142.57 20.23 142.63 20.22 142.7 20.2 142.76 20.19 142.83 20.18 142.89 20.17 142.95 20.17 143.02 20.16 143.08 20.16 143.15 20.15 143.21 20.15 143.28 20.14 143.34 20.14 143.4 20.13 143.47 20.13 143.53 20.13 143.6 20.12 143.66 20.12 143.72 20.12 143.79 20.11 143.85 20.11 143.92 20.11 143.98 20.1 144.05 20.1 144.11 20.1 144.17 20.1 144.24 20.09 144.3 20.09 144.37 20.09 144.43 20.09 144.5 20.08 144.56 20.08 144.62 20.08 144.69 20.07 144.75 20.07 144.82 20.07 144.88 20.07 144.94 20.06 145.01 20.06 145.07 20.06 145.14 20.06 145.2 20.05 145.27 20.05 145.33 20.05 145.39 20.05 145.46 20.04 145.52 20.04 145.59 20.04 145.65 20.04 145.72 20.03 145.78 20.03 145.84 20.03 145.91 20.02 145.97 20.02 146.04 20.02 146.1 20.02 146.16 20.01 146.23 20.01 146.29 20.01 146.36 20.01 146.42 20.01 146.49 20 146.55 20 146.61 20 146.68 20 146.74 19.99 146.81 19.99 146.87 19.99 146.93 19.99 147 19.98 147.06 19.98 147.13 19.98 147.19 19.98 147.26 19.97 147.32 19.97 147.38 19.97 147.45 19.97 147.51 19.96 147.58 19.96 147.64 19.96 147.71 19.96 147.77 19.96 147.83 19.95 147.9 19.95 147.96 19.95 148.03 19.95 148.09 19.95 148.15 19.94 148.22 19.94 148.28 19.94 148.35 19.94 148.41 19.93 148.48 19.93 148.54 19.93 148.6 19.93 148.67 19.93 148.73 19.92 148.8 19.92 148.86 19.92 148.93 19.92 148.99 19.92 149.05 19.91 149.12 19.91 149.18 19.91 149.25 19.91 149.31 19.91 149.37 19.9 149.44 19.9 149.5 19.9 149.57 19.9 149.63 19.9 149.7 19.89 149.76 19.89 149.82 19.89 149.89 19.89 149.95 19.89 150.02 19.88 150.08 19.88 150.14 19.88 150.21 19.88 150.27 19.88 150.34 19.88 150.4 19.87 150.47 19.87 150.53 19.87 150.59 19.87 150.66 19.87 150.72 19.87 150.79 19.86 150.85 19.86 150.92 19.86 150.98 19.86 151.04 19.86 151.11 19.86 151.17 19.85 151.24 19.85 151.3 19.85 151.36 19.85 151.43 19.85 151.49 19.85 151.56 19.84 151.62 19.84 151.69 19.84 151.75 19.84 151.81 19.84 151.88 19.84 151.94 19.83 152.01 19.83 152.07 19.83 152.13 19.83 152.2 19.83 152.26 19.83 152.33 19.83 152.39 19.82 152.46 19.82 152.52 19.82 152.58 19.82 152.65 19.82 152.71 19.82 152.78 19.82 152.84 19.81 152.91 19.81 152.97 19.81 153.03 19.81 153.1 19.81 153.16 19.81 153.23 19.81 153.29 19.81 153.35 19.8 153.42 19.8 153.48 19.8 153.55 19.8 153.61 19.8 153.68 19.8 153.74 19.8 153.8 19.8 153.87 19.79 153.93 19.79 154 19.79 154.06 19.79 154.13 19.79 154.19 19.79 154.25 19.79 154.32 19.79 154.38 19.78 154.45 19.78 154.51 19.78 154.57 19.78 154.64 19.78 154.7 19.78 154.77 19.78 154.83 19.78 154.9 19.78 154.96 19.78 155.02 19.77 155.09 19.77 155.15 19.77 155.22 19.77 155.28 19.77 155.35 19.77 155.41 19.77 155.47 19.77 155.54 19.77 155.6 19.76 155.67 19.76 155.73 19.76 155.79 19.76 155.86 19.76 155.92 19.76 155.99 19.76 156.05 19.76 156.12 19.76 156.18 19.76 156.24 19.76 156.31 19.75 156.37 19.75 156.44 19.75 156.5 19.75 156.56 19.75 156.63 19.75 156.69 19.75 156.76 19.75 156.82 19.75 156.89 19.75 156.95 19.75 157.01 19.75 157.08 19.74 157.14 19.74 157.21 19.74 157.27 19.74 157.34 19.74 157.4 19.74 157.46 19.74 157.53 19.74 157.59 19.74 157.66 19.74 157.72 19.74 157.78 19.74 157.85 19.74 157.91 19.73 157.98 19.73 158.04 19.73 158.11 19.73 158.17 19.73 158.23 19.73 158.3 19.73 158.36 19.73 158.43 19.73 158.49 19.73 158.56 19.73 158.62 19.73 158.68 19.73 158.75 19.73 158.81 19.72 158.88 19.72 158.94 19.72 159 19.72 159.07 19.72 159.13 19.72 159.2 19.72 159.26 19.72 159.33 19.72 159.39 19.72 159.45 19.72 159.52 19.72 159.58 19.72 159.65 19.72 159.71 19.72 159.77 19.72 159.84 19.72 159.9 19.71 159.97 19.71 160.03 19.71 160.1 19.71 160.16 19.71 160.22 19.71 160.29 19.71 160.35 19.71 160.42 19.71 160.48 19.71 160.55 19.71 160.61 19.71 160.67 19.71 160.74 19.71 160.8 19.71 160.87 19.71 160.93 19.71 160.99 19.71 161.06 19.71 161.12 19.71 161.19 19.7 161.25 19.7 161.32 19.7 161.38 19.7 161.44 19.7 161.51 19.7 161.57 19.7 161.64 19.7 161.7 19.7 161.77 19.7 161.83 19.7 161.89 19.7 161.96 19.7 162.02 19.7 162.09 19.7 162.15 19.7 162.21 19.7 162.28 19.7 162.34 19.7 162.41 19.7 162.47 19.7 162.54 19.7 162.6 19.7 162.66 19.7 162.73 19.7 162.79 19.69 162.86 19.69 162.92 19.69 162.98 19.69 163.05 19.69 163.11 19.69 163.18 19.69 163.24 19.69 163.31 19.69 163.37 19.69 163.43 19.69 163.5 19.69 163.56 19.69 163.63 19.69 163.69 19.69 163.76 19.69 163.82 19.69 163.88 19.69 163.95 19.69 164.01 19.69 164.08 19.69 164.14 19.69 164.2 19.69 164.27 19.69 164.33 19.69 164.4 19.69 164.46 19.69 164.53 19.69 164.59 19.69 164.65 19.69 164.72 19.69 164.78 19.69 164.85 19.68 164.91 19.68 164.98 19.68 165.04 19.68 165.1 19.68 165.17 19.68 165.23 19.68 165.3 19.68 165.36 19.68 165.42 19.68 165.49 19.68 165.55 19.68 165.62 19.68 165.68 19.68 165.75 19.68 165.81 19.68 165.87 19.68 165.94 19.68 166 19.68 166.07 19.68 166.13 19.68 166.19 19.68 166.26 19.68 166.32 19.68 166.39 19.68 166.45 19.68 166.52 19.68 166.58 19.68 166.64 19.68 166.71 19.68 166.77 19.68 166.84 19.68 166.9 19.68 166.97 19.68 167.03 19.68 167.09 19.68 167.16 19.68 167.22 19.68 167.29 19.68 167.35 19.68 167.41 19.68 167.48 19.68 167.54 19.68 167.61 19.68 167.67 19.68 167.74 19.67 167.8 19.67 167.86 19.67 167.93 19.67 167.99 19.67 168.06 19.67 168.12 19.67 168.19 19.67 168.25 19.67 168.31 19.67 168.38 19.67 168.44 19.67 168.51 19.67 168.57 19.67 168.63 19.67 168.7 19.67 168.76 19.67 168.83 19.67 168.89 19.67 168.96 19.67 169.02 19.67 169.08 19.67 169.15 19.67 169.21 19.67 169.28 19.67 169.34 19.67 169.4 19.67 169.47 19.67 169.53 19.67 169.6 19.67 169.66 19.67 169.73 19.67 169.79 19.67 169.85 19.67 169.92 19.67 169.98 19.67 170.05 19.67 170.11 19.67 170.18 19.67 170.24 19.67 170.3 19.67 170.37 19.67 170.43 19.67 170.5 19.67 170.56 19.67 170.62 19.67 170.69 19.67 170.75 19.67 170.82 19.67 170.88 19.67 170.95 19.67 171.01 19.67 171.07 19.67 171.14 19.67 171.2 19.67 171.27 19.67 171.33 19.67 171.4 19.67 171.46 19.67 171.52 19.67 171.59 19.67 171.65 19.67 171.72 19.67 171.78 19.67 171.84 19.67 171.91 19.67 171.97 19.67 172.04 19.67 172.1 19.67 172.17 19.67 172.23 19.67 172.29 19.67 172.36 19.67 172.42 19.67 172.49 19.67 172.55 19.67 172.61 19.67 172.68 19.67 172.74 19.67 172.81 19.67 172.87 19.67 172.94 19.67 173 19.67"/>
      </g>
    </g>
  </g>
  <g class="guide ylabels" font-size="2.82" font-family="'Latin Modern Math','Latin-Modern',serif" fill="#6C606B" id="fig-a009a9c8516b411db03532906fe34600-element-52">
    <text x="137.9" y="38.37" text-anchor="end" dy="0.35em">1.5</text>
    <text x="137.9" y="32.52" text-anchor="end" dy="0.35em">2.0</text>
    <text x="137.9" y="26.67" text-anchor="end" dy="0.35em">2.5</text>
    <text x="137.9" y="20.83" text-anchor="end" dy="0.35em">3.0</text>
    <text x="137.9" y="14.98" text-anchor="end" dy="0.35em">3.5</text>
  </g>
  <g font-size="4.23" font-family="'Latin Modern Math','Latin-Modern',serif" fill="#564A55" stroke="#000000" stroke-opacity="0.000" id="fig-a009a9c8516b411db03532906fe34600-element-53">
    <text x="128.99" y="24.67" text-anchor="middle" dy="0.35em" transform="rotate(-90, 128.99, 26.67)">E[U]</text>
  </g>
  <g font-size="4.23" font-family="'Latin Modern Math','Latin-Modern',serif" fill="#564A55" stroke="#000000" stroke-opacity="0.000" id="fig-a009a9c8516b411db03532906fe34600-element-54">
    <text x="156.95" y="10.98" text-anchor="middle">Expected utility</text>
  </g>
</g>
<g class="plotroot yscalable" id="fig-a009a9c8516b411db03532906fe34600-element-55">
  <g font-size="4.23" font-family="'Latin Modern Math','Latin-Modern',serif" fill="#564A55" stroke="#000000" stroke-opacity="0.000" id="fig-a009a9c8516b411db03532906fe34600-element-56">
    <text x="96.95" y="52" text-anchor="middle">a</text>
  </g>
  <g class="guide xlabels" font-size="2.82" font-family="'Latin Modern Math','Latin-Modern',serif" fill="#6C606B" id="fig-a009a9c8516b411db03532906fe34600-element-57">
    <text x="83.41" y="44.02" text-anchor="middle">a1</text>
    <text x="92.44" y="44.02" text-anchor="middle">a2</text>
    <text x="101.46" y="44.02" text-anchor="middle">a3</text>
    <text x="110.49" y="44.02" text-anchor="middle">a4</text>
  </g>
  <g clip-path="url(#fig-a009a9c8516b411db03532906fe34600-element-59)" id="fig-a009a9c8516b411db03532906fe34600-element-58">
    <g pointer-events="visible" opacity="1" fill="#000000" fill-opacity="0.000" stroke="#000000" stroke-opacity="0.000" class="guide background" id="fig-a009a9c8516b411db03532906fe34600-element-60">
      <rect x="78.9" y="12.98" width="36.1" height="27.39"/>
    </g>
    <g class="guide ygridlines xfixed" stroke-dasharray="0.5,0.5" stroke-width="0.2" stroke="#D0D0E0" id="fig-a009a9c8516b411db03532906fe34600-element-61">
      <path fill="none" d="M78.9,38.37 L 115 38.37"/>
      <path fill="none" d="M78.9,26.67 L 115 26.67"/>
      <path fill="none" d="M78.9,14.98 L 115 14.98"/>
    </g>
    <g class="guide xgridlines yfixed" stroke-dasharray="0.5,0.5" stroke-width="0.2" stroke="#D0D0E0" id="fig-a009a9c8516b411db03532906fe34600-element-62">
      <path fill="none" d="M87.93,12.98 L 87.93 40.37"/>
      <path fill="none" d="M96.95,12.98 L 96.95 40.37"/>
      <path fill="none" d="M105.98,12.98 L 105.98 40.37"/>
    </g>
    <g class="plotpanel" id="fig-a009a9c8516b411db03532906fe34600-element-63">
      <g shape-rendering="crispEdges" stroke-width="0.3" id="fig-a009a9c8516b411db03532906fe34600-element-64">
        <g stroke="#000000" stroke-opacity="0.000" fill="#00BFFF" class="geometry" id="fig-a009a9c8516b411db03532906fe34600-element-65">
          <rect x="79.08" y="32.52" width="8.67" height="5.85"/>
          <rect x="88.1" y="32.52" width="8.67" height="5.85"/>
          <rect x="97.13" y="32.52" width="8.67" height="5.85"/>
          <rect x="106.15" y="32.52" width="8.67" height="5.85"/>
        </g>
      </g>
    </g>
  </g>
  <g class="guide ylabels" font-size="2.82" font-family="'Latin Modern Math','Latin-Modern',serif" fill="#6C606B" id="fig-a009a9c8516b411db03532906fe34600-element-66">
    <text x="77.9" y="38.37" text-anchor="end" dy="0.35em">0.0</text>
    <text x="77.9" y="26.67" text-anchor="end" dy="0.35em">0.5</text>
    <text x="77.9" y="14.98" text-anchor="end" dy="0.35em">1.0</text>
  </g>
  <g font-size="4.23" font-family="'Latin Modern Math','Latin-Modern',serif" fill="#564A55" stroke="#000000" stroke-opacity="0.000" id="fig-a009a9c8516b411db03532906fe34600-element-67">
    <text x="68.99" y="24.67" text-anchor="middle" dy="0.35em" transform="rotate(-90, 68.99, 26.67)">p0(a)</text>
  </g>
  <g font-size="4.23" font-family="'Latin Modern Math','Latin-Modern',serif" fill="#564A55" stroke="#000000" stroke-opacity="0.000" id="fig-a009a9c8516b411db03532906fe34600-element-68">
    <text x="96.95" y="10.98" text-anchor="middle">Prior</text>
  </g>
</g>
<g class="plotroot yscalable" id="fig-a009a9c8516b411db03532906fe34600-element-69">
  <g font-size="4.23" font-family="'Latin Modern Math','Latin-Modern',serif" fill="#564A55" stroke="#000000" stroke-opacity="0.000" id="fig-a009a9c8516b411db03532906fe34600-element-70">
    <text x="35.77" y="52" text-anchor="middle">a</text>
  </g>
  <g class="guide xlabels" font-size="2.82" font-family="'Latin Modern Math','Latin-Modern',serif" fill="#6C606B" id="fig-a009a9c8516b411db03532906fe34600-element-71">
    <text x="21.35" y="44.02" text-anchor="middle">a1</text>
    <text x="30.97" y="44.02" text-anchor="middle">a2</text>
    <text x="40.58" y="44.02" text-anchor="middle">a3</text>
    <text x="50.19" y="44.02" text-anchor="middle">a4</text>
  </g>
  <g clip-path="url(#fig-a009a9c8516b411db03532906fe34600-element-73)" id="fig-a009a9c8516b411db03532906fe34600-element-72">
    <g pointer-events="visible" opacity="1" fill="#000000" fill-opacity="0.000" stroke="#000000" stroke-opacity="0.000" class="guide background" id="fig-a009a9c8516b411db03532906fe34600-element-74">
      <rect x="16.55" y="12.98" width="38.45" height="27.39"/>
    </g>
    <g class="guide ygridlines xfixed" stroke-dasharray="0.5,0.5" stroke-width="0.2" stroke="#D0D0E0" id="fig-a009a9c8516b411db03532906fe34600-element-75">
      <path fill="none" d="M16.55,38.37 L 55 38.37"/>
      <path fill="none" d="M16.55,32.52 L 55 32.52"/>
      <path fill="none" d="M16.55,26.67 L 55 26.67"/>
      <path fill="none" d="M16.55,20.83 L 55 20.83"/>
      <path fill="none" d="M16.55,14.98 L 55 14.98"/>
    </g>
    <g class="guide xgridlines yfixed" stroke-dasharray="0.5,0.5" stroke-width="0.2" stroke="#D0D0E0" id="fig-a009a9c8516b411db03532906fe34600-element-76">
      <path fill="none" d="M26.16,12.98 L 26.16 40.37"/>
      <path fill="none" d="M35.77,12.98 L 35.77 40.37"/>
      <path fill="none" d="M45.39,12.98 L 45.39 40.37"/>
    </g>
    <g class="plotpanel" id="fig-a009a9c8516b411db03532906fe34600-element-77">
      <g shape-rendering="crispEdges" stroke-width="0.3" id="fig-a009a9c8516b411db03532906fe34600-element-78">
        <g stroke="#000000" stroke-opacity="0.000" fill="#00BFFF" class="geometry" id="fig-a009a9c8516b411db03532906fe34600-element-79">
          <rect x="16.72" y="20.83" width="9.26" height="17.54"/>
          <rect x="26.34" y="38.25" width="9.26" height="0.12"/>
          <rect x="35.95" y="32.52" width="9.26" height="5.85"/>
          <rect x="45.56" y="20.24" width="9.26" height="18.12"/>
        </g>
      </g>
    </g>
  </g>
  <g class="guide ylabels" font-size="2.82" font-family="'Latin Modern Math','Latin-Modern',serif" fill="#6C606B" id="fig-a009a9c8516b411db03532906fe34600-element-80">
    <text x="15.55" y="38.37" text-anchor="end" dy="0.35em">0</text>
    <text x="15.55" y="32.52" text-anchor="end" dy="0.35em">1</text>
    <text x="15.55" y="26.67" text-anchor="end" dy="0.35em">2</text>
    <text x="15.55" y="20.83" text-anchor="end" dy="0.35em">3</text>
    <text x="15.55" y="14.98" text-anchor="end" dy="0.35em">4</text>
  </g>
  <g font-size="4.23" font-family="'Latin Modern Math','Latin-Modern',serif" fill="#564A55" stroke="#000000" stroke-opacity="0.000" id="fig-a009a9c8516b411db03532906fe34600-element-81">
    <text x="8.99" y="24.67" text-anchor="middle" dy="0.35em" transform="rotate(-90, 8.99, 26.67)">U(a)</text>
  </g>
  <g font-size="4.23" font-family="'Latin Modern Math','Latin-Modern',serif" fill="#564A55" stroke="#000000" stroke-opacity="0.000" id="fig-a009a9c8516b411db03532906fe34600-element-82">
    <text x="35.77" y="10.98" text-anchor="middle">Utility</text>
  </g>
</g>
<defs>
<clipPath id="fig-a009a9c8516b411db03532906fe34600-element-5">
  <path d="M140.89,72.98 L 175 72.98 175 101.29 140.89 101.29" />
</clipPath
><clipPath id="fig-a009a9c8516b411db03532906fe34600-element-73">
  <path d="M16.55,12.98 L 55 12.98 55 40.37 16.55 40.37" />
</clipPath
><clipPath id="fig-a009a9c8516b411db03532906fe34600-element-32">
  <path d="M18.9,72.98 L 55 72.98 55 100.37 18.9 100.37" />
</clipPath
><clipPath id="fig-a009a9c8516b411db03532906fe34600-element-18">
  <path d="M78.9,72.98 L 115 72.98 115 100.37 78.9 100.37" />
</clipPath
><clipPath id="fig-a009a9c8516b411db03532906fe34600-element-46">
  <path d="M138.9,12.98 L 175 12.98 175 40.37 138.9 40.37" />
</clipPath
><clipPath id="fig-a009a9c8516b411db03532906fe34600-element-59">
  <path d="M78.9,12.98 L 115 12.98 115 40.37 78.9 40.37" />
</clipPath
></defs>
</svg>
