<?xml version="1.0" encoding="UTF-8"?>
<svg xmlns="http://www.w3.org/2000/svg"
     xmlns:xlink="http://www.w3.org/1999/xlink"
     xmlns:gadfly="http://www.gadflyjl.org/ns"
     version="1.2"
     width="130mm" height="110mm" viewBox="0 0 130 110"
     stroke="none"
     fill="#000000"
     stroke-width="0.3"
     font-size="3.88"
>
<g class="plotroot xscalable yscalable" id="fig-b9a5a15d3796479a85e4d453d80717d5-element-1">
  <g font-size="4.23" font-family="'Latin Modern Math','Latin-Modern',serif" fill="#564A55" stroke="#000000" stroke-opacity="0.000" id="fig-b9a5a15d3796479a85e4d453d80717d5-element-2">
    <text x="62.04" y="98.02" text-anchor="middle" dy="0.6em">I(A;O) [bits]</text>
  </g>
  <g class="guide xlabels" font-size="2.82" font-family="'Latin Modern Math','Latin-Modern',serif" fill="#6C606B" id="fig-b9a5a15d3796479a85e4d453d80717d5-element-3">
    <text x="18.55" y="91.37" text-anchor="middle" dy="0.6em">0</text>
    <text x="40.29" y="91.37" text-anchor="middle" dy="0.6em">1</text>
    <text x="62.04" y="91.37" text-anchor="middle" dy="0.6em">2</text>
    <text x="83.79" y="91.37" text-anchor="middle" dy="0.6em">3</text>
    <text x="105.54" y="91.37" text-anchor="middle" dy="0.6em">4</text>
  </g>
  <g class="guide colorkey" id="fig-b9a5a15d3796479a85e4d453d80717d5-element-4">
    <g fill="#4C404B" font-size="3.53" font-family="'Latin Modern Math','Latin-Modern',serif" id="fig-b9a5a15d3796479a85e4d453d80717d5-element-5">
      <text x="111.7" y="51.67" dy="0.35em" id="fig-b9a5a15d3796479a85e4d453d80717d5-element-6" class="color_false">false</text>
      <text x="111.7" y="55.99" dy="0.35em" id="fig-b9a5a15d3796479a85e4d453d80717d5-element-7" class="color_true">true</text>
    </g>
    <g stroke="#000000" stroke-opacity="0.000" id="fig-b9a5a15d3796479a85e4d453d80717d5-element-8">
      <rect x="108.54" y="50.59" width="2.16" height="2.16" id="fig-b9a5a15d3796479a85e4d453d80717d5-element-9" class="color_false" fill="#004D84"/>
      <rect x="108.54" y="54.91" width="2.16" height="2.16" id="fig-b9a5a15d3796479a85e4d453d80717d5-element-10" class="color_true" fill="#7E273E"/>
    </g>
    <g fill="#362A35" font-size="3.88" font-family="'Latin Modern Math','Latin-Modern',serif" stroke="#000000" stroke-opacity="0.000" id="fig-b9a5a15d3796479a85e4d453d80717d5-element-11">
      <text x="108.54" y="47.18" id="fig-b9a5a15d3796479a85e4d453d80717d5-element-12">Forgetting</text>
    </g>
  </g>
  <g clip-path="url(#fig-b9a5a15d3796479a85e4d453d80717d5-element-14)" id="fig-b9a5a15d3796479a85e4d453d80717d5-element-13">
    <g pointer-events="visible" opacity="1" fill="#000000" fill-opacity="0.000" stroke="#000000" stroke-opacity="0.000" class="guide background" id="fig-b9a5a15d3796479a85e4d453d80717d5-element-15">
      <rect x="16.55" y="12.98" width="90.99" height="77.39" id="fig-b9a5a15d3796479a85e4d453d80717d5-element-16"/>
    </g>
    <g class="guide ygridlines xfixed" stroke-dasharray="0.5,0.5" stroke-width="0.2" stroke="#D0D0E0" id="fig-b9a5a15d3796479a85e4d453d80717d5-element-17">
      <path fill="none" d="M16.55,88.37 L 107.54 88.37" id="fig-b9a5a15d3796479a85e4d453d80717d5-element-18"/>
      <path fill="none" d="M16.55,63.9 L 107.54 63.9" id="fig-b9a5a15d3796479a85e4d453d80717d5-element-19"/>
      <path fill="none" d="M16.55,39.44 L 107.54 39.44" id="fig-b9a5a15d3796479a85e4d453d80717d5-element-20"/>
      <path fill="none" d="M16.55,14.98 L 107.54 14.98" id="fig-b9a5a15d3796479a85e4d453d80717d5-element-21"/>
    </g>
    <g class="guide xgridlines yfixed" stroke-dasharray="0.5,0.5" stroke-width="0.2" stroke="#D0D0E0" id="fig-b9a5a15d3796479a85e4d453d80717d5-element-22">
      <path fill="none" d="M18.55,12.98 L 18.55 90.37" id="fig-b9a5a15d3796479a85e4d453d80717d5-element-23"/>
      <path fill="none" d="M40.29,12.98 L 40.29 90.37" id="fig-b9a5a15d3796479a85e4d453d80717d5-element-24"/>
      <path fill="none" d="M62.04,12.98 L 62.04 90.37" id="fig-b9a5a15d3796479a85e4d453d80717d5-element-25"/>
      <path fill="none" d="M83.79,12.98 L 83.79 90.37" id="fig-b9a5a15d3796479a85e4d453d80717d5-element-26"/>
      <path fill="none" d="M105.54,12.98 L 105.54 90.37" id="fig-b9a5a15d3796479a85e4d453d80717d5-element-27"/>
    </g>
    <g class="plotpanel" id="fig-b9a5a15d3796479a85e4d453d80717d5-element-28">
      <g stroke-width="0.71" fill="#000000" fill-opacity="0.000" id="fig-b9a5a15d3796479a85e4d453d80717d5-element-29">
        <path fill="none" d="M18.73,76.19 L 19.57 71.14 22.96 62.43 30.7 52.69 50.11 37.97 62.8 30.34 74.71 24.03 88.52 17.59" id="fig-b9a5a15d3796479a85e4d453d80717d5-element-30" class="geometry color_false" stroke="#004D84"/>
        <path fill="none" d="M21.82,67.88 L 20.56 65.13 21.4 61.46 28.48 53.74 45.58 40.31 62.83 29.83 69.58 26.31 89.61 17.18" id="fig-b9a5a15d3796479a85e4d453d80717d5-element-31" class="geometry color_true" stroke="#7E273E"/>
      </g>
      <g stroke-width="0.71" stroke="#000000" stroke-opacity="0.000" class="geometry" fill="#D1EAC7" id="fig-b9a5a15d3796479a85e4d453d80717d5-element-32">
        <path d="M95.2,15.09 L 95.13 15.11 95.06 15.13 94.97 15.16 94.87 15.18 94.75 15.22 94.62 15.26 94.47 15.3 94.3 15.35 94.11 15.41 93.88 15.48 93.63 15.56 93.35 15.65 93.03 15.76 92.66 15.89 92.25 16.03 91.78 16.2 91.25 16.39 90.65 16.61 89.98 16.87 89.22 17.17 88.38 17.51 87.43 17.9 86.36 18.36 85.18 18.87 72.19 24.78 70.97 25.35 69.68 25.96 68.27 26.66 66.73 27.44 65.06 28.32 63.25 29.3 61.3 30.4 48.29 38.03 46.85 38.9 45.35 39.85 43.7 40.94 41.13 42.7 38.31 44.74 36.75 45.91 31.3 50.28 30.19 51.21 29.08 52.18 27.98 53.21 26.89 54.29 24.28 57.08 22.29 59.33 21.79 59.94 21.31 60.57 20.86 61.23 20.44 61.9 20.05 62.6 19.7 63.31 19.39 64.04 19.12 64.78 18.89 65.54 18.71 66.31 18.57 67.08 18.55 67.29 18.55 67.29 18.55 15.09 18.55 15.09 18.57 15.09 18.71 15.09 18.89 15.09 19.12 15.09 19.39 15.09 19.7 15.09 20.05 15.09 20.44 15.09 20.86 15.09 21.31 15.09 21.79 15.09 22.29 15.09 24.28 15.09 26.89 15.09 27.98 15.09 29.08 15.09 30.19 15.09 31.3 15.09 36.75 15.09 38.31 15.09 41.13 15.09 43.7 15.09 45.35 15.09 46.85 15.09 48.29 15.09 61.3 15.09 63.25 15.09 65.06 15.09 66.73 15.09 68.27 15.09 69.68 15.09 70.97 15.09 72.19 15.09 85.18 15.09 86.36 15.09 87.43 15.09 88.38 15.09 89.22 15.09 89.98 15.09 90.65 15.09 91.25 15.09 91.78 15.09 92.25 15.09 92.66 15.09 93.03 15.09 93.35 15.09 93.63 15.09 93.88 15.09 94.11 15.09 94.3 15.09 94.47 15.09 94.62 15.09 94.75 15.09 94.87 15.09 94.97 15.09 95.06 15.09 95.13 15.09 95.2 15.09 z" id="fig-b9a5a15d3796479a85e4d453d80717d5-element-33"/>
      </g>
      <g stroke-width="0.71" fill="#000000" fill-opacity="0.000" class="geometry" stroke="#00BFFF" id="fig-b9a5a15d3796479a85e4d453d80717d5-element-34">
        <path fill="none" d="M18.55,67.29 L 18.55 67.29 18.57 67.08 18.71 66.31 18.89 65.54 19.12 64.78 19.39 64.04 19.7 63.31 20.05 62.6 20.44 61.9 20.86 61.23 21.31 60.57 21.79 59.94 22.29 59.33 24.28 57.08 26.89 54.29 27.98 53.21 29.08 52.18 30.19 51.21 31.3 50.28 36.75 45.91 38.31 44.74 41.13 42.7 43.7 40.94 45.35 39.85 46.85 38.9 48.29 38.03 61.3 30.4 63.25 29.3 65.06 28.32 66.73 27.44 68.27 26.66 69.68 25.96 70.97 25.35 72.19 24.78 85.18 18.87 86.36 18.36 87.43 17.9 88.38 17.51 89.22 17.17 89.98 16.87 90.65 16.61 91.25 16.39 91.78 16.2 92.25 16.03 92.66 15.89 93.03 15.76 93.35 15.65 93.63 15.56 93.88 15.48 94.11 15.41 94.3 15.35 94.47 15.3 94.62 15.26 94.75 15.22 94.87 15.18 94.97 15.16 95.06 15.13 95.13 15.11 95.2 15.09" id="fig-b9a5a15d3796479a85e4d453d80717d5-element-35"/>
      </g>
      <g class="geometry" id="fig-b9a5a15d3796479a85e4d453d80717d5-element-36">
        <g class="color_AlphaColorValue{RGB{Float32},Float32}(RGB{Float32}(0.0f0,0.74736935f0,1.0f0),1.0f0)" stroke="#FFFFFF" stroke-width="0.3" fill="#00BFFF" id="fig-b9a5a15d3796479a85e4d453d80717d5-element-37">
          <circle cx="18.55" cy="67.23" r="0.9" id="fig-b9a5a15d3796479a85e4d453d80717d5-element-38"/>
          <circle cx="19.07" cy="64.93" r="0.9" id="fig-b9a5a15d3796479a85e4d453d80717d5-element-39"/>
          <circle cx="20.78" cy="61.36" r="0.9" id="fig-b9a5a15d3796479a85e4d453d80717d5-element-40"/>
          <circle cx="27.76" cy="53.42" r="0.9" id="fig-b9a5a15d3796479a85e4d453d80717d5-element-41"/>
          <circle cx="45.04" cy="40.05" r="0.9" id="fig-b9a5a15d3796479a85e4d453d80717d5-element-42"/>
          <circle cx="62.87" cy="29.51" r="0.9" id="fig-b9a5a15d3796479a85e4d453d80717d5-element-43"/>
          <circle cx="69.41" cy="26.1" r="0.9" id="fig-b9a5a15d3796479a85e4d453d80717d5-element-44"/>
          <circle cx="89.84" cy="16.93" r="0.9" id="fig-b9a5a15d3796479a85e4d453d80717d5-element-45"/>
        </g>
      </g>
      <g class="geometry" id="fig-b9a5a15d3796479a85e4d453d80717d5-element-46">
        <g stroke-width="0.3" id="fig-b9a5a15d3796479a85e4d453d80717d5-element-47">
          <circle cx="18.73" cy="76.19" r="0.9" id="fig-b9a5a15d3796479a85e4d453d80717d5-element-48" class="color_false" stroke="#FFFFFF" fill="#004D84"/>
          <circle cx="21.82" cy="67.88" r="0.9" id="fig-b9a5a15d3796479a85e4d453d80717d5-element-49" class="color_true" stroke="#FFFFFF" fill="#7E273E"/>
          <circle cx="19.57" cy="71.14" r="0.9" id="fig-b9a5a15d3796479a85e4d453d80717d5-element-50" class="color_false" stroke="#FFFFFF" fill="#004D84"/>
          <circle cx="20.56" cy="65.13" r="0.9" id="fig-b9a5a15d3796479a85e4d453d80717d5-element-51" class="color_true" stroke="#FFFFFF" fill="#7E273E"/>
          <circle cx="22.96" cy="62.43" r="0.9" id="fig-b9a5a15d3796479a85e4d453d80717d5-element-52" class="color_false" stroke="#FFFFFF" fill="#004D84"/>
          <circle cx="21.4" cy="61.46" r="0.9" id="fig-b9a5a15d3796479a85e4d453d80717d5-element-53" class="color_true" stroke="#FFFFFF" fill="#7E273E"/>
          <circle cx="30.7" cy="52.69" r="0.9" id="fig-b9a5a15d3796479a85e4d453d80717d5-element-54" class="color_false" stroke="#FFFFFF" fill="#004D84"/>
          <circle cx="28.48" cy="53.74" r="0.9" id="fig-b9a5a15d3796479a85e4d453d80717d5-element-55" class="color_true" stroke="#FFFFFF" fill="#7E273E"/>
          <circle cx="50.11" cy="37.97" r="0.9" id="fig-b9a5a15d3796479a85e4d453d80717d5-element-56" class="color_false" stroke="#FFFFFF" fill="#004D84"/>
          <circle cx="45.58" cy="40.31" r="0.9" id="fig-b9a5a15d3796479a85e4d453d80717d5-element-57" class="color_true" stroke="#FFFFFF" fill="#7E273E"/>
          <circle cx="62.8" cy="30.34" r="0.9" id="fig-b9a5a15d3796479a85e4d453d80717d5-element-58" class="color_false" stroke="#FFFFFF" fill="#004D84"/>
          <circle cx="62.83" cy="29.83" r="0.9" id="fig-b9a5a15d3796479a85e4d453d80717d5-element-59" class="color_true" stroke="#FFFFFF" fill="#7E273E"/>
          <circle cx="74.71" cy="24.03" r="0.9" id="fig-b9a5a15d3796479a85e4d453d80717d5-element-60" class="color_false" stroke="#FFFFFF" fill="#004D84"/>
          <circle cx="69.58" cy="26.31" r="0.9" id="fig-b9a5a15d3796479a85e4d453d80717d5-element-61" class="color_true" stroke="#FFFFFF" fill="#7E273E"/>
          <circle cx="88.52" cy="17.59" r="0.9" id="fig-b9a5a15d3796479a85e4d453d80717d5-element-62" class="color_false" stroke="#FFFFFF" fill="#004D84"/>
          <circle cx="89.61" cy="17.18" r="0.9" id="fig-b9a5a15d3796479a85e4d453d80717d5-element-63" class="color_true" stroke="#FFFFFF" fill="#7E273E"/>
        </g>
      </g>
    </g>
  </g>
  <g class="guide ylabels" font-size="2.82" font-family="'Latin Modern Math','Latin-Modern',serif" fill="#6C606B" id="fig-b9a5a15d3796479a85e4d453d80717d5-element-64">
    <text x="15.55" y="88.37" text-anchor="end" dy="0.35em" id="fig-b9a5a15d3796479a85e4d453d80717d5-element-65">0</text>
    <text x="15.55" y="63.9" text-anchor="end" dy="0.35em" id="fig-b9a5a15d3796479a85e4d453d80717d5-element-66">1</text>
    <text x="15.55" y="39.44" text-anchor="end" dy="0.35em" id="fig-b9a5a15d3796479a85e4d453d80717d5-element-67">2</text>
    <text x="15.55" y="14.98" text-anchor="end" dy="0.35em" id="fig-b9a5a15d3796479a85e4d453d80717d5-element-68">3</text>
  </g>
  <g font-size="4.23" font-family="'Latin Modern Math','Latin-Modern',serif" fill="#564A55" stroke="#000000" stroke-opacity="0.000" id="fig-b9a5a15d3796479a85e4d453d80717d5-element-69">
    <text x="8.99" y="49.67" text-anchor="middle" dy="0.35em" transform="rotate(-90, 8.99, 51.67)" id="fig-b9a5a15d3796479a85e4d453d80717d5-element-70">E[U]</text>
  </g>
  <g font-size="4.23" font-family="'Latin Modern Math','Latin-Modern',serif" fill="#564A55" stroke="#000000" stroke-opacity="0.000" id="fig-b9a5a15d3796479a85e4d453d80717d5-element-71">
    <text x="62.04" y="10.98" text-anchor="middle" id="fig-b9a5a15d3796479a85e4d453d80717d5-element-72">Rate-Utility curve (dots show mean sampling solutions)</text>
  </g>
</g>
<defs>
<clipPath id="fig-b9a5a15d3796479a85e4d453d80717d5-element-14">
  <path d="M16.55,12.98 L 107.54 12.98 107.54 90.37 16.55 90.37" />
</clipPath
></defs>
</svg>
