<?xml version="1.0" encoding="UTF-8"?>
<svg xmlns="http://www.w3.org/2000/svg"
     xmlns:xlink="http://www.w3.org/1999/xlink"
     xmlns:gadfly="http://www.gadflyjl.org/ns"
     version="1.2"
     width="180mm" height="120mm" viewBox="0 0 180 120"
     stroke="none"
     fill="#000000"
     stroke-width="0.3"
     font-size="3.88"
>
<g class="plotroot xscalable yscalable" id="fig-331b20603b4843b1b3071c30e28a1365-element-1">
  <g font-size="4.23" font-family="'Latin Modern Math','Latin-Modern',serif" fill="#564A55" stroke="#000000" stroke-opacity="0.000" id="fig-331b20603b4843b1b3071c30e28a1365-element-2">
    <text x="157.94" y="108.02" text-anchor="middle" dy="0.6em">β</text>
  </g>
  <g class="guide xlabels" font-size="2.82" font-family="'Latin Modern Math','Latin-Modern',serif" fill="#6C606B" id="fig-331b20603b4843b1b3071c30e28a1365-element-3">
    <text x="142.89" y="101.37" text-anchor="middle" dy="0.6em">0</text>
    <text x="148.91" y="101.37" text-anchor="middle" dy="0.6em">10</text>
    <text x="154.93" y="101.37" text-anchor="middle" dy="0.6em">20</text>
    <text x="160.96" y="101.37" text-anchor="middle" dy="0.6em">30</text>
    <text x="166.98" y="101.37" text-anchor="middle" dy="0.6em">40</text>
    <text x="173" y="101.37" text-anchor="middle" dy="0.6em">50</text>
  </g>
  <g clip-path="url(#fig-331b20603b4843b1b3071c30e28a1365-element-5)" id="fig-331b20603b4843b1b3071c30e28a1365-element-4">
    <g pointer-events="visible" opacity="1" fill="#000000" fill-opacity="0.000" stroke="#000000" stroke-opacity="0.000" class="guide background" id="fig-331b20603b4843b1b3071c30e28a1365-element-6">
      <rect x="140.89" y="72.98" width="34.11" height="27.39"/>
    </g>
    <g class="guide ygridlines xfixed" stroke-dasharray="0.5,0.5" stroke-width="0.2" stroke="#D0D0E0" id="fig-331b20603b4843b1b3071c30e28a1365-element-7">
      <path fill="none" d="M140.89,98.37 L 175 98.37"/>
      <path fill="none" d="M140.89,92.52 L 175 92.52"/>
      <path fill="none" d="M140.89,86.67 L 175 86.67"/>
      <path fill="none" d="M140.89,80.83 L 175 80.83"/>
      <path fill="none" d="M140.89,74.98 L 175 74.98"/>
    </g>
    <g class="guide xgridlines yfixed" stroke-dasharray="0.5,0.5" stroke-width="0.2" stroke="#D0D0E0" id="fig-331b20603b4843b1b3071c30e28a1365-element-8">
      <path fill="none" d="M142.89,72.98 L 142.89 100.37"/>
      <path fill="none" d="M148.91,72.98 L 148.91 100.37"/>
      <path fill="none" d="M154.93,72.98 L 154.93 100.37"/>
      <path fill="none" d="M160.96,72.98 L 160.96 100.37"/>
      <path fill="none" d="M166.98,72.98 L 166.98 100.37"/>
      <path fill="none" d="M173,72.98 L 173 100.37"/>
    </g>
    <g class="plotpanel" id="fig-331b20603b4843b1b3071c30e28a1365-element-9">
      <g stroke-width="0.71" fill="#000000" fill-opacity="0.000" class="geometry" stroke="#00BFFF" id="fig-331b20603b4843b1b3071c30e28a1365-element-10">
        <path fill="none" d="M142.89,98.37 L 142.95 98.22 143.01 97.82 143.07 97.2 143.13 96.42 143.19 95.54 143.25 94.62 143.31 93.7 143.37 92.83 143.43 92.01 143.49 91.26 143.55 90.59 143.61 90 143.67 89.49 143.73 89.04 143.79 88.66 143.85 88.33 143.91 88.05 143.97 87.81 144.03 87.6 144.09 87.43 144.15 87.28 144.21 87.16 144.28 87.05 144.34 86.96 144.4 86.88 144.46 86.82 144.52 86.76 144.58 86.71 144.64 86.66 144.7 86.62 144.76 86.59 144.82 86.56 144.88 86.53 144.94 86.5 145 86.47 145.06 86.45 145.12 86.43 145.18 86.41 145.24 86.38 145.3 86.36 145.36 86.34 145.42 86.32 145.48 86.3 145.54 86.28 145.6 86.27 145.66 86.25 145.72 86.23 145.78 86.21 145.84 86.19 145.9 86.17 145.96 86.14 146.02 86.12 146.08 86.1 146.14 86.08 146.2 86.06 146.26 86.04 146.32 86.02 146.38 85.99 146.44 85.97 146.5 85.95 146.56 85.92 146.62 85.9 146.68 85.88 146.74 85.85 146.8 85.83 146.86 85.8 146.92 85.78 146.98 85.75 147.05 85.73 147.11 85.7 147.17 85.67 147.23 85.65 147.29 85.62 147.35 85.59 147.41 85.57 147.47 85.54 147.53 85.51 147.59 85.48 147.65 85.45 147.71 85.42 147.77 85.4 147.83 85.37 147.89 85.34 147.95 85.31 148.01 85.28 148.07 85.25 148.13 85.22 148.19 85.19 148.25 85.15 148.31 85.12 148.37 85.09 148.43 85.06 148.49 85.03 148.55 85 148.61 84.97 148.67 84.93 148.73 84.9 148.79 84.87 148.85 84.83 148.91 84.8 148.97 84.77 149.03 84.74 149.09 84.7 149.15 84.67 149.21 84.63 149.27 84.6 149.33 84.57 149.39 84.53 149.45 84.5 149.51 84.46 149.57 84.43 149.63 84.39 149.69 84.36 149.76 84.32 149.82 84.29 149.88 84.25 149.94 84.22 150 84.18 150.06 84.14 150.12 84.11 150.18 84.07 150.24 84.04 150.3 84 150.36 83.96 150.42 83.93 150.48 83.89 150.54 83.85 150.6 83.82 150.66 83.78 150.72 83.74 150.78 83.71 150.84 83.67 150.9 83.63 150.96 83.59 151.02 83.56 151.08 83.52 151.14 83.48 151.2 83.45 151.26 83.41 151.32 83.37 151.38 83.33 151.44 83.3 151.5 83.26 151.56 83.22 151.62 83.18 151.68 83.14 151.74 83.11 151.8 83.07 151.86 83.03 151.92 82.99 151.98 82.96 152.04 82.92 152.1 82.88 152.16 82.84 152.22 82.81 152.28 82.77 152.34 82.73 152.4 82.69 152.46 82.65 152.53 82.62 152.59 82.58 152.65 82.54 152.71 82.5 152.77 82.47 152.83 82.43 152.89 82.39 152.95 82.35 153.01 82.32 153.07 82.28 153.13 82.24 153.19 82.2 153.25 82.17 153.31 82.13 153.37 82.09 153.43 82.05 153.49 82.02 153.55 81.98 153.61 81.94 153.67 81.91 153.73 81.87 153.79 81.83 153.85 81.79 153.91 81.76 153.97 81.72 154.03 81.68 154.09 81.65 154.15 81.61 154.21 81.57 154.27 81.54 154.33 81.5 154.39 81.47 154.45 81.43 154.51 81.39 154.57 81.36 154.63 81.32 154.69 81.29 154.75 81.25 154.81 81.21 154.87 81.18 154.93 81.14 154.99 81.11 155.05 81.07 155.11 81.04 155.17 81 155.24 80.97 155.3 80.93 155.36 80.9 155.42 80.86 155.48 80.83 155.54 80.79 155.6 80.76 155.66 80.73 155.72 80.69 155.78 80.66 155.84 80.62 155.9 80.59 155.96 80.56 156.02 80.52 156.08 80.49 156.14 80.45 156.2 80.42 156.26 80.39 156.32 80.36 156.38 80.32 156.44 80.29 156.5 80.26 156.56 80.22 156.62 80.19 156.68 80.16 156.74 80.13 156.8 80.1 156.86 80.06 156.92 80.03 156.98 80 157.04 79.97 157.1 79.94 157.16 79.91 157.22 79.87 157.28 79.84 157.34 79.81 157.4 79.78 157.46 79.75 157.52 79.72 157.58 79.69 157.64 79.66 157.7 79.63 157.76 79.6 157.82 79.57 157.88 79.54 157.94 79.51 158.01 79.48 158.07 79.45 158.13 79.42 158.19 79.39 158.25 79.36 158.31 79.34 158.37 79.31 158.43 79.28 158.49 79.25 158.55 79.22 158.61 79.19 158.67 79.16 158.73 79.14 158.79 79.11 158.85 79.08 158.91 79.05 158.97 79.03 159.03 79 159.09 78.97 159.15 78.95 159.21 78.92 159.27 78.89 159.33 78.87 159.39 78.84 159.45 78.81 159.51 78.79 159.57 78.76 159.63 78.73 159.69 78.71 159.75 78.68 159.81 78.66 159.87 78.63 159.93 78.61 159.99 78.58 160.05 78.56 160.11 78.53 160.17 78.51 160.23 78.48 160.29 78.46 160.35 78.44 160.41 78.41 160.47 78.39 160.53 78.36 160.59 78.34 160.65 78.32 160.72 78.29 160.78 78.27 160.84 78.25 160.9 78.22 160.96 78.2 161.02 78.18 161.08 78.15 161.14 78.13 161.2 78.11 161.26 78.09 161.32 78.07 161.38 78.04 161.44 78.02 161.5 78 161.56 77.98 161.62 77.96 161.68 77.93 161.74 77.91 161.8 77.89 161.86 77.87 161.92 77.85 161.98 77.83 162.04 77.81 162.1 77.79 162.16 77.77 162.22 77.75 162.28 77.73 162.34 77.71 162.4 77.69 162.46 77.67 162.52 77.65 162.58 77.63 162.64 77.61 162.7 77.59 162.76 77.57 162.82 77.55 162.88 77.53 162.94 77.51 163 77.5 163.06 77.48 163.12 77.46 163.18 77.44 163.24 77.42 163.3 77.4 163.36 77.39 163.43 77.37 163.49 77.35 163.55 77.33 163.61 77.32 163.67 77.3 163.73 77.28 163.79 77.26 163.85 77.25 163.91 77.23 163.97 77.21 164.03 77.2 164.09 77.18 164.15 77.16 164.21 77.15 164.27 77.13 164.33 77.11 164.39 77.1 164.45 77.08 164.51 77.07 164.57 77.05 164.63 77.03 164.69 77.02 164.75 77 164.81 76.99 164.87 76.97 164.93 76.96 164.99 76.94 165.05 76.93 165.11 76.91 165.17 76.9 165.23 76.88 165.29 76.87 165.35 76.85 165.41 76.84 165.47 76.83 165.53 76.81 165.59 76.8 165.65 76.78 165.71 76.77 165.77 76.76 165.83 76.74 165.89 76.73 165.95 76.72 166.01 76.7 166.07 76.69 166.13 76.68 166.2 76.66 166.26 76.65 166.32 76.64 166.38 76.62 166.44 76.61 166.5 76.6 166.56 76.59 166.62 76.57 166.68 76.56 166.74 76.55 166.8 76.54 166.86 76.52 166.92 76.51 166.98 76.5 167.04 76.49 167.1 76.48 167.16 76.46 167.22 76.45 167.28 76.44 167.34 76.43 167.4 76.42 167.46 76.41 167.52 76.4 167.58 76.38 167.64 76.37 167.7 76.36 167.76 76.35 167.82 76.34 167.88 76.33 167.94 76.32 168 76.31 168.06 76.3 168.12 76.29 168.18 76.28 168.24 76.27 168.3 76.26 168.36 76.25 168.42 76.24 168.48 76.23 168.54 76.22 168.6 76.21 168.66 76.2 168.72 76.19 168.78 76.18 168.84 76.17 168.91 76.16 168.97 76.15 169.03 76.14 169.09 76.13 169.15 76.12 169.21 76.11 169.27 76.1 169.33 76.1 169.39 76.09 169.45 76.08 169.51 76.07 169.57 76.06 169.63 76.05 169.69 76.04 169.75 76.03 169.81 76.03 169.87 76.02 169.93 76.01 169.99 76 170.05 75.99 170.11 75.98 170.17 75.98 170.23 75.97 170.29 75.96 170.35 75.95 170.41 75.94 170.47 75.94 170.53 75.93 170.59 75.92 170.65 75.91 170.71 75.91 170.77 75.9 170.83 75.89 170.89 75.88 170.95 75.88 171.01 75.87 171.07 75.86 171.13 75.85 171.19 75.85 171.25 75.84 171.31 75.83 171.37 75.83 171.43 75.82 171.49 75.81 171.55 75.81 171.61 75.8 171.68 75.79 171.74 75.79 171.8 75.78 171.86 75.77 171.92 75.77 171.98 75.76 172.04 75.75 172.1 75.75 172.16 75.74 172.22 75.73 172.28 75.73 172.34 75.72 172.4 75.72 172.46 75.71 172.52 75.7 172.58 75.7 172.64 75.69 172.7 75.69 172.76 75.68 172.82 75.67 172.88 75.67 172.94 75.66 173 75.66"/>
      </g>
    </g>
  </g>
  <g class="guide ylabels" font-size="2.82" font-family="'Latin Modern Math','Latin-Modern',serif" fill="#6C606B" id="fig-331b20603b4843b1b3071c30e28a1365-element-11">
    <text x="139.89" y="98.37" text-anchor="end" dy="0.35em">0.0</text>
    <text x="139.89" y="92.52" text-anchor="end" dy="0.35em">0.5</text>
    <text x="139.89" y="86.67" text-anchor="end" dy="0.35em">1.0</text>
    <text x="139.89" y="80.83" text-anchor="end" dy="0.35em">1.5</text>
    <text x="139.89" y="74.98" text-anchor="end" dy="0.35em">2.0</text>
  </g>
  <g font-size="4.23" font-family="'Latin Modern Math','Latin-Modern',serif" fill="#564A55" stroke="#000000" stroke-opacity="0.000" id="fig-331b20603b4843b1b3071c30e28a1365-element-12">
    <text x="129.99" y="84.67" text-anchor="middle" dy="0.35em" transform="rotate(-90, 129.99, 86.67)">D<tspan style="dominant-baseline:inherit" dy="0.6em" font-size="83%">KL</tspan><tspan dy="-0.498000em">(p||p0) [bits]</tspan></text>
  </g>
  <g font-size="4.23" font-family="'Latin Modern Math','Latin-Modern',serif" fill="#564A55" stroke="#000000" stroke-opacity="0.000" id="fig-331b20603b4843b1b3071c30e28a1365-element-13">
    <text x="157.94" y="70.98" text-anchor="middle">KL-divergence</text>
  </g>
</g>
<g class="plotroot yscalable" id="fig-331b20603b4843b1b3071c30e28a1365-element-14">
  <g font-size="4.23" font-family="'Latin Modern Math','Latin-Modern',serif" fill="#564A55" stroke="#000000" stroke-opacity="0.000" id="fig-331b20603b4843b1b3071c30e28a1365-element-15">
    <text x="96.95" y="108.02" text-anchor="middle" dy="0.6em">a</text>
  </g>
  <g class="guide xlabels" font-size="2.82" font-family="'Latin Modern Math','Latin-Modern',serif" fill="#6C606B" id="fig-331b20603b4843b1b3071c30e28a1365-element-16">
    <text x="83.41" y="101.37" text-anchor="middle" dy="0.6em">a1</text>
    <text x="92.44" y="101.37" text-anchor="middle" dy="0.6em">a2</text>
    <text x="101.46" y="101.37" text-anchor="middle" dy="0.6em">a3</text>
    <text x="110.49" y="101.37" text-anchor="middle" dy="0.6em">a4</text>
  </g>
  <g clip-path="url(#fig-331b20603b4843b1b3071c30e28a1365-element-18)" id="fig-331b20603b4843b1b3071c30e28a1365-element-17">
    <g pointer-events="visible" opacity="1" fill="#000000" fill-opacity="0.000" stroke="#000000" stroke-opacity="0.000" class="guide background" id="fig-331b20603b4843b1b3071c30e28a1365-element-19">
      <rect x="78.9" y="72.98" width="36.1" height="27.39"/>
    </g>
    <g class="guide ygridlines xfixed" stroke-dasharray="0.5,0.5" stroke-width="0.2" stroke="#D0D0E0" id="fig-331b20603b4843b1b3071c30e28a1365-element-20">
      <path fill="none" d="M78.9,98.37 L 115 98.37"/>
      <path fill="none" d="M78.9,86.67 L 115 86.67"/>
      <path fill="none" d="M78.9,74.98 L 115 74.98"/>
    </g>
    <g class="guide xgridlines yfixed" stroke-dasharray="0.5,0.5" stroke-width="0.2" stroke="#D0D0E0" id="fig-331b20603b4843b1b3071c30e28a1365-element-21">
      <path fill="none" d="M87.93,72.98 L 87.93 100.37"/>
      <path fill="none" d="M96.95,72.98 L 96.95 100.37"/>
      <path fill="none" d="M105.98,72.98 L 105.98 100.37"/>
    </g>
    <g class="plotpanel" id="fig-331b20603b4843b1b3071c30e28a1365-element-22">
      <g shape-rendering="crispEdges" stroke-width="0.3" id="fig-331b20603b4843b1b3071c30e28a1365-element-23">
        <g stroke="#000000" stroke-opacity="0.000" fill="#00BFFF" class="geometry" id="fig-331b20603b4843b1b3071c30e28a1365-element-24">
          <rect x="79.08" y="98.37" width="8.67" height="0.01"/>
          <rect x="88.1" y="98.37" width="8.67" height="0.01"/>
          <rect x="97.13" y="98.37" width="8.67" height="0.01"/>
          <rect x="106.15" y="74.98" width="8.67" height="23.39"/>
        </g>
      </g>
    </g>
  </g>
  <g class="guide ylabels" font-size="2.82" font-family="'Latin Modern Math','Latin-Modern',serif" fill="#6C606B" id="fig-331b20603b4843b1b3071c30e28a1365-element-25">
    <text x="77.9" y="98.37" text-anchor="end" dy="0.35em">0.0</text>
    <text x="77.9" y="86.67" text-anchor="end" dy="0.35em">0.5</text>
    <text x="77.9" y="74.98" text-anchor="end" dy="0.35em">1.0</text>
  </g>
  <g font-size="4.23" font-family="'Latin Modern Math','Latin-Modern',serif" fill="#564A55" stroke="#000000" stroke-opacity="0.000" id="fig-331b20603b4843b1b3071c30e28a1365-element-26">
    <text x="68.99" y="84.67" text-anchor="middle" dy="0.35em" transform="rotate(-90, 68.99, 86.67)">p*(a|w)</text>
  </g>
  <g font-size="4.23" font-family="'Latin Modern Math','Latin-Modern',serif" fill="#564A55" stroke="#000000" stroke-opacity="0.000" id="fig-331b20603b4843b1b3071c30e28a1365-element-27">
    <text x="96.95" y="70.98" text-anchor="middle">Posterior, β=100</text>
  </g>
</g>
<g class="plotroot yscalable" id="fig-331b20603b4843b1b3071c30e28a1365-element-28">
  <g font-size="4.23" font-family="'Latin Modern Math','Latin-Modern',serif" fill="#564A55" stroke="#000000" stroke-opacity="0.000" id="fig-331b20603b4843b1b3071c30e28a1365-element-29">
    <text x="36.95" y="108.02" text-anchor="middle" dy="0.6em">a</text>
  </g>
  <g class="guide xlabels" font-size="2.82" font-family="'Latin Modern Math','Latin-Modern',serif" fill="#6C606B" id="fig-331b20603b4843b1b3071c30e28a1365-element-30">
    <text x="23.41" y="101.37" text-anchor="middle" dy="0.6em">a1</text>
    <text x="32.44" y="101.37" text-anchor="middle" dy="0.6em">a2</text>
    <text x="41.46" y="101.37" text-anchor="middle" dy="0.6em">a3</text>
    <text x="50.49" y="101.37" text-anchor="middle" dy="0.6em">a4</text>
  </g>
  <g clip-path="url(#fig-331b20603b4843b1b3071c30e28a1365-element-32)" id="fig-331b20603b4843b1b3071c30e28a1365-element-31">
    <g pointer-events="visible" opacity="1" fill="#000000" fill-opacity="0.000" stroke="#000000" stroke-opacity="0.000" class="guide background" id="fig-331b20603b4843b1b3071c30e28a1365-element-33">
      <rect x="18.9" y="72.98" width="36.1" height="27.39"/>
    </g>
    <g class="guide ygridlines xfixed" stroke-dasharray="0.5,0.5" stroke-width="0.2" stroke="#D0D0E0" id="fig-331b20603b4843b1b3071c30e28a1365-element-34">
      <path fill="none" d="M18.9,98.37 L 55 98.37"/>
      <path fill="none" d="M18.9,86.67 L 55 86.67"/>
      <path fill="none" d="M18.9,74.98 L 55 74.98"/>
    </g>
    <g class="guide xgridlines yfixed" stroke-dasharray="0.5,0.5" stroke-width="0.2" stroke="#D0D0E0" id="fig-331b20603b4843b1b3071c30e28a1365-element-35">
      <path fill="none" d="M27.93,72.98 L 27.93 100.37"/>
      <path fill="none" d="M36.95,72.98 L 36.95 100.37"/>
      <path fill="none" d="M45.98,72.98 L 45.98 100.37"/>
    </g>
    <g class="plotpanel" id="fig-331b20603b4843b1b3071c30e28a1365-element-36">
      <g shape-rendering="crispEdges" stroke-width="0.3" id="fig-331b20603b4843b1b3071c30e28a1365-element-37">
        <g stroke="#000000" stroke-opacity="0.000" fill="#00BFFF" class="geometry" id="fig-331b20603b4843b1b3071c30e28a1365-element-38">
          <rect x="19.08" y="88.16" width="8.67" height="10.21"/>
          <rect x="28.1" y="97.85" width="8.67" height="0.52"/>
          <rect x="37.13" y="96.99" width="8.67" height="1.38"/>
          <rect x="46.15" y="87.09" width="8.67" height="11.28"/>
        </g>
      </g>
    </g>
  </g>
  <g class="guide ylabels" font-size="2.82" font-family="'Latin Modern Math','Latin-Modern',serif" fill="#6C606B" id="fig-331b20603b4843b1b3071c30e28a1365-element-39">
    <text x="17.9" y="98.37" text-anchor="end" dy="0.35em">0.0</text>
    <text x="17.9" y="86.67" text-anchor="end" dy="0.35em">0.5</text>
    <text x="17.9" y="74.98" text-anchor="end" dy="0.35em">1.0</text>
  </g>
  <g font-size="4.23" font-family="'Latin Modern Math','Latin-Modern',serif" fill="#564A55" stroke="#000000" stroke-opacity="0.000" id="fig-331b20603b4843b1b3071c30e28a1365-element-40">
    <text x="8.99" y="84.67" text-anchor="middle" dy="0.35em" transform="rotate(-90, 8.99, 86.67)">p*(a|w)</text>
  </g>
  <g font-size="4.23" font-family="'Latin Modern Math','Latin-Modern',serif" fill="#564A55" stroke="#000000" stroke-opacity="0.000" id="fig-331b20603b4843b1b3071c30e28a1365-element-41">
    <text x="36.95" y="70.98" text-anchor="middle">Posterior, β=1</text>
  </g>
</g>
<g class="plotroot xscalable yscalable" id="fig-331b20603b4843b1b3071c30e28a1365-element-42">
  <g font-size="4.23" font-family="'Latin Modern Math','Latin-Modern',serif" fill="#564A55" stroke="#000000" stroke-opacity="0.000" id="fig-331b20603b4843b1b3071c30e28a1365-element-43">
    <text x="156.95" y="48.02" text-anchor="middle" dy="0.6em">β</text>
  </g>
  <g class="guide xlabels" font-size="2.82" font-family="'Latin Modern Math','Latin-Modern',serif" fill="#6C606B" id="fig-331b20603b4843b1b3071c30e28a1365-element-44">
    <text x="140.9" y="41.37" text-anchor="middle" dy="0.6em">0</text>
    <text x="147.32" y="41.37" text-anchor="middle" dy="0.6em">10</text>
    <text x="153.74" y="41.37" text-anchor="middle" dy="0.6em">20</text>
    <text x="160.16" y="41.37" text-anchor="middle" dy="0.6em">30</text>
    <text x="166.58" y="41.37" text-anchor="middle" dy="0.6em">40</text>
    <text x="173" y="41.37" text-anchor="middle" dy="0.6em">50</text>
  </g>
  <g clip-path="url(#fig-331b20603b4843b1b3071c30e28a1365-element-46)" id="fig-331b20603b4843b1b3071c30e28a1365-element-45">
    <g pointer-events="visible" opacity="1" fill="#000000" fill-opacity="0.000" stroke="#000000" stroke-opacity="0.000" class="guide background" id="fig-331b20603b4843b1b3071c30e28a1365-element-47">
      <rect x="138.9" y="12.98" width="36.1" height="27.39"/>
    </g>
    <g class="guide ygridlines xfixed" stroke-dasharray="0.5,0.5" stroke-width="0.2" stroke="#D0D0E0" id="fig-331b20603b4843b1b3071c30e28a1365-element-48">
      <path fill="none" d="M138.9,38.37 L 175 38.37"/>
      <path fill="none" d="M138.9,32.52 L 175 32.52"/>
      <path fill="none" d="M138.9,26.67 L 175 26.67"/>
      <path fill="none" d="M138.9,20.83 L 175 20.83"/>
      <path fill="none" d="M138.9,14.98 L 175 14.98"/>
    </g>
    <g class="guide xgridlines yfixed" stroke-dasharray="0.5,0.5" stroke-width="0.2" stroke="#D0D0E0" id="fig-331b20603b4843b1b3071c30e28a1365-element-49">
      <path fill="none" d="M140.9,12.98 L 140.9 40.37"/>
      <path fill="none" d="M147.32,12.98 L 147.32 40.37"/>
      <path fill="none" d="M153.74,12.98 L 153.74 40.37"/>
      <path fill="none" d="M160.16,12.98 L 160.16 40.37"/>
      <path fill="none" d="M166.58,12.98 L 166.58 40.37"/>
      <path fill="none" d="M173,12.98 L 173 40.37"/>
    </g>
    <g class="plotpanel" id="fig-331b20603b4843b1b3071c30e28a1365-element-50">
      <g stroke-width="0.71" fill="#000000" fill-opacity="0.000" class="geometry" stroke="#00BFFF" id="fig-331b20603b4843b1b3071c30e28a1365-element-51">
        <path fill="none" d="M140.9,35.09 L 140.96 33.1 141.03 31.22 141.09 29.49 141.16 27.94 141.22 26.58 141.29 25.42 141.35 24.44 141.41 23.63 141.48 22.96 141.54 22.42 141.61 21.97 141.67 21.62 141.73 21.33 141.8 21.1 141.86 20.92 141.93 20.77 141.99 20.65 142.06 20.56 142.12 20.48 142.18 20.42 142.25 20.37 142.31 20.33 142.38 20.3 142.44 20.27 142.51 20.25 142.57 20.23 142.63 20.22 142.7 20.2 142.76 20.19 142.83 20.18 142.89 20.17 142.95 20.17 143.02 20.16 143.08 20.16 143.15 20.15 143.21 20.15 143.28 20.14 143.34 20.14 143.4 20.13 143.47 20.13 143.53 20.13 143.6 20.12 143.66 20.12 143.72 20.12 143.79 20.11 143.85 20.11 143.92 20.11 143.98 20.1 144.05 20.1 144.11 20.1 144.17 20.1 144.24 20.09 144.3 20.09 144.37 20.09 144.43 20.09 144.5 20.08 144.56 20.08 144.62 20.08 144.69 20.07 144.75 20.07 144.82 20.07 144.88 20.07 144.94 20.06 145.01 20.06 145.07 20.06 145.14 20.06 145.2 20.05 145.27 20.05 145.33 20.05 145.39 20.05 145.46 20.04 145.52 20.04 145.59 20.04 145.65 20.04 145.72 20.03 145.78 20.03 145.84 20.03 145.91 20.02 145.97 20.02 146.04 20.02 146.1 20.02 146.16 20.01 146.23 20.01 146.29 20.01 146.36 20.01 146.42 20.01 146.49 20 146.55 20 146.61 20 146.68 20 146.74 19.99 146.81 19.99 146.87 19.99 146.93 19.99 147 19.98 147.06 19.98 147.13 19.98 147.19 19.98 147.26 19.97 147.32 19.97 147.38 19.97 147.45 19.97 147.51 19.96 147.58 19.96 147.64 19.96 147.71 19.96 147.77 19.96 147.83 19.95 147.9 19.95 147.96 19.95 148.03 19.95 148.09 19.95 148.15 19.94 148.22 19.94 148.28 19.94 148.35 19.94 148.41 19.93 148.48 19.93 148.54 19.93 148.6 19.93 148.67 19.93 148.73 19.92 148.8 19.92 148.86 19.92 148.93 19.92 148.99 19.92 149.05 19.91 149.12 19.91 149.18 19.91 149.25 19.91 149.31 19.91 149.37 19.9 149.44 19.9 149.5 19.9 149.57 19.9 149.63 19.9 149.7 19.89 149.76 19.89 149.82 19.89 149.89 19.89 149.95 19.89 150.02 19.88 150.08 19.88 150.14 19.88 150.21 19.88 150.27 19.88 150.34 19.88 150.4 19.87 150.47 19.87 150.53 19.87 150.59 19.87 150.66 19.87 150.72 19.87 150.79 19.86 150.85 19.86 150.92 19.86 150.98 19.86 151.04 19.86 151.11 19.86 151.17 19.85 151.24 19.85 151.3 19.85 151.36 19.85 151.43 19.85 151.49 19.85 151.56 19.84 151.62 19.84 151.69 19.84 151.75 19.84 151.81 19.84 151.88 19.84 151.94 19.83 152.01 19.83 152.07 19.83 152.13 19.83 152.2 19.83 152.26 19.83 152.33 19.83 152.39 19.82 152.46 19.82 152.52 19.82 152.58 19.82 152.65 19.82 152.71 19.82 152.78 19.82 152.84 19.81 152.91 19.81 152.97 19.81 153.03 19.81 153.1 19.81 153.16 19.81 153.23 19.81 153.29 19.81 153.35 19.8 153.42 19.8 153.48 19.8 153.55 19.8 153.61 19.8 153.68 19.8 153.74 19.8 153.8 19.8 153.87 19.79 153.93 19.79 154 19.79 154.06 19.79 154.13 19.79 154.19 19.79 154.25 19.79 154.32 19.79 154.38 19.78 154.45 19.78 154.51 19.78 154.57 19.78 154.64 19.78 154.7 19.78 154.77 19.78 154.83 19.78 154.9 19.78 154.96 19.78 155.02 19.77 155.09 19.77 155.15 19.77 155.22 19.77 155.28 19.77 155.35 19.77 155.41 19.77 155.47 19.77 155.54 19.77 155.6 19.76 155.67 19.76 155.73 19.76 155.79 19.76 155.86 19.76 155.92 19.76 155.99 19.76 156.05 19.76 156.12 19.76 156.18 19.76 156.24 19.76 156.31 19.75 156.37 19.75 156.44 19.75 156.5 19.75 156.56 19.75 156.63 19.75 156.69 19.75 156.76 19.75 156.82 19.75 156.89 19.75 156.95 19.75 157.01 19.75 157.08 19.74 157.14 19.74 157.21 19.74 157.27 19.74 157.34 19.74 157.4 19.74 157.46 19.74 157.53 19.74 157.59 19.74 157.66 19.74 157.72 19.74 157.78 19.74 157.85 19.74 157.91 19.73 157.98 19.73 158.04 19.73 158.11 19.73 158.17 19.73 158.23 19.73 158.3 19.73 158.36 19.73 158.43 19.73 158.49 19.73 158.56 19.73 158.62 19.73 158.68 19.73 158.75 19.73 158.81 19.72 158.88 19.72 158.94 19.72 159 19.72 159.07 19.72 159.13 19.72 159.2 19.72 159.26 19.72 159.33 19.72 159.39 19.72 159.45 19.72 159.52 19.72 159.58 19.72 159.65 19.72 159.71 19.72 159.77 19.72 159.84 19.72 159.9 19.71 159.97 19.71 160.03 19.71 160.1 19.71 160.16 19.71 160.22 19.71 160.29 19.71 160.35 19.71 160.42 19.71 160.48 19.71 160.55 19.71 160.61 19.71 160.67 19.71 160.74 19.71 160.8 19.71 160.87 19.71 160.93 19.71 160.99 19.71 161.06 19.71 161.12 19.71 161.19 19.7 161.25 19.7 161.32 19.7 161.38 19.7 161.44 19.7 161.51 19.7 161.57 19.7 161.64 19.7 161.7 19.7 161.77 19.7 161.83 19.7 161.89 19.7 161.96 19.7 162.02 19.7 162.09 19.7 162.15 19.7 162.21 19.7 162.28 19.7 162.34 19.7 162.41 19.7 162.47 19.7 162.54 19.7 162.6 19.7 162.66 19.7 162.73 19.7 162.79 19.69 162.86 19.69 162.92 19.69 162.98 19.69 163.05 19.69 163.11 19.69 163.18 19.69 163.24 19.69 163.31 19.69 163.37 19.69 163.43 19.69 163.5 19.69 163.56 19.69 163.63 19.69 163.69 19.69 163.76 19.69 163.82 19.69 163.88 19.69 163.95 19.69 164.01 19.69 164.08 19.69 164.14 19.69 164.2 19.69 164.27 19.69 164.33 19.69 164.4 19.69 164.46 19.69 164.53 19.69 164.59 19.69 164.65 19.69 164.72 19.69 164.78 19.69 164.85 19.68 164.91 19.68 164.98 19.68 165.04 19.68 165.1 19.68 165.17 19.68 165.23 19.68 165.3 19.68 165.36 19.68 165.42 19.68 165.49 19.68 165.55 19.68 165.62 19.68 165.68 19.68 165.75 19.68 165.81 19.68 165.87 19.68 165.94 19.68 166 19.68 166.07 19.68 166.13 19.68 166.19 19.68 166.26 19.68 166.32 19.68 166.39 19.68 166.45 19.68 166.52 19.68 166.58 19.68 166.64 19.68 166.71 19.68 166.77 19.68 166.84 19.68 166.9 19.68 166.97 19.68 167.03 19.68 167.09 19.68 167.16 19.68 167.22 19.68 167.29 19.68 167.35 19.68 167.41 19.68 167.48 19.68 167.54 19.68 167.61 19.68 167.67 19.68 167.74 19.67 167.8 19.67 167.86 19.67 167.93 19.67 167.99 19.67 168.06 19.67 168.12 19.67 168.19 19.67 168.25 19.67 168.31 19.67 168.38 19.67 168.44 19.67 168.51 19.67 168.57 19.67 168.63 19.67 168.7 19.67 168.76 19.67 168.83 19.67 168.89 19.67 168.96 19.67 169.02 19.67 169.08 19.67 169.15 19.67 169.21 19.67 169.28 19.67 169.34 19.67 169.4 19.67 169.47 19.67 169.53 19.67 169.6 19.67 169.66 19.67 169.73 19.67 169.79 19.67 169.85 19.67 169.92 19.67 169.98 19.67 170.05 19.67 170.11 19.67 170.18 19.67 170.24 19.67 170.3 19.67 170.37 19.67 170.43 19.67 170.5 19.67 170.56 19.67 170.62 19.67 170.69 19.67 170.75 19.67 170.82 19.67 170.88 19.67 170.95 19.67 171.01 19.67 171.07 19.67 171.14 19.67 171.2 19.67 171.27 19.67 171.33 19.67 171.4 19.67 171.46 19.67 171.52 19.67 171.59 19.67 171.65 19.67 171.72 19.67 171.78 19.67 171.84 19.67 171.91 19.67 171.97 19.67 172.04 19.67 172.1 19.67 172.17 19.67 172.23 19.67 172.29 19.67 172.36 19.67 172.42 19.67 172.49 19.67 172.55 19.67 172.61 19.67 172.68 19.67 172.74 19.67 172.81 19.67 172.87 19.67 172.94 19.67 173 19.67"/>
      </g>
    </g>
  </g>
  <g class="guide ylabels" font-size="2.82" font-family="'Latin Modern Math','Latin-Modern',serif" fill="#6C606B" id="fig-331b20603b4843b1b3071c30e28a1365-element-52">
    <text x="137.9" y="38.37" text-anchor="end" dy="0.35em">1.5</text>
    <text x="137.9" y="32.52" text-anchor="end" dy="0.35em">2.0</text>
    <text x="137.9" y="26.67" text-anchor="end" dy="0.35em">2.5</text>
    <text x="137.9" y="20.83" text-anchor="end" dy="0.35em">3.0</text>
    <text x="137.9" y="14.98" text-anchor="end" dy="0.35em">3.5</text>
  </g>
  <g font-size="4.23" font-family="'Latin Modern Math','Latin-Modern',serif" fill="#564A55" stroke="#000000" stroke-opacity="0.000" id="fig-331b20603b4843b1b3071c30e28a1365-element-53">
    <text x="128.99" y="24.67" text-anchor="middle" dy="0.35em" transform="rotate(-90, 128.99, 26.67)">E[U]</text>
  </g>
  <g font-size="4.23" font-family="'Latin Modern Math','Latin-Modern',serif" fill="#564A55" stroke="#000000" stroke-opacity="0.000" id="fig-331b20603b4843b1b3071c30e28a1365-element-54">
    <text x="156.95" y="10.98" text-anchor="middle">Expected utility</text>
  </g>
</g>
<g class="plotroot yscalable" id="fig-331b20603b4843b1b3071c30e28a1365-element-55">
  <g font-size="4.23" font-family="'Latin Modern Math','Latin-Modern',serif" fill="#564A55" stroke="#000000" stroke-opacity="0.000" id="fig-331b20603b4843b1b3071c30e28a1365-element-56">
    <text x="96.95" y="48.02" text-anchor="middle" dy="0.6em">a</text>
  </g>
  <g class="guide xlabels" font-size="2.82" font-family="'Latin Modern Math','Latin-Modern',serif" fill="#6C606B" id="fig-331b20603b4843b1b3071c30e28a1365-element-57">
    <text x="83.41" y="41.37" text-anchor="middle" dy="0.6em">a1</text>
    <text x="92.44" y="41.37" text-anchor="middle" dy="0.6em">a2</text>
    <text x="101.46" y="41.37" text-anchor="middle" dy="0.6em">a3</text>
    <text x="110.49" y="41.37" text-anchor="middle" dy="0.6em">a4</text>
  </g>
  <g clip-path="url(#fig-331b20603b4843b1b3071c30e28a1365-element-59)" id="fig-331b20603b4843b1b3071c30e28a1365-element-58">
    <g pointer-events="visible" opacity="1" fill="#000000" fill-opacity="0.000" stroke="#000000" stroke-opacity="0.000" class="guide background" id="fig-331b20603b4843b1b3071c30e28a1365-element-60">
      <rect x="78.9" y="12.98" width="36.1" height="27.39"/>
    </g>
    <g class="guide ygridlines xfixed" stroke-dasharray="0.5,0.5" stroke-width="0.2" stroke="#D0D0E0" id="fig-331b20603b4843b1b3071c30e28a1365-element-61">
      <path fill="none" d="M78.9,38.37 L 115 38.37"/>
      <path fill="none" d="M78.9,26.67 L 115 26.67"/>
      <path fill="none" d="M78.9,14.98 L 115 14.98"/>
    </g>
    <g class="guide xgridlines yfixed" stroke-dasharray="0.5,0.5" stroke-width="0.2" stroke="#D0D0E0" id="fig-331b20603b4843b1b3071c30e28a1365-element-62">
      <path fill="none" d="M87.93,12.98 L 87.93 40.37"/>
      <path fill="none" d="M96.95,12.98 L 96.95 40.37"/>
      <path fill="none" d="M105.98,12.98 L 105.98 40.37"/>
    </g>
    <g class="plotpanel" id="fig-331b20603b4843b1b3071c30e28a1365-element-63">
      <g shape-rendering="crispEdges" stroke-width="0.3" id="fig-331b20603b4843b1b3071c30e28a1365-element-64">
        <g stroke="#000000" stroke-opacity="0.000" fill="#00BFFF" class="geometry" id="fig-331b20603b4843b1b3071c30e28a1365-element-65">
          <rect x="79.08" y="32.52" width="8.67" height="5.85"/>
          <rect x="88.1" y="32.52" width="8.67" height="5.85"/>
          <rect x="97.13" y="32.52" width="8.67" height="5.85"/>
          <rect x="106.15" y="32.52" width="8.67" height="5.85"/>
        </g>
      </g>
    </g>
  </g>
  <g class="guide ylabels" font-size="2.82" font-family="'Latin Modern Math','Latin-Modern',serif" fill="#6C606B" id="fig-331b20603b4843b1b3071c30e28a1365-element-66">
    <text x="77.9" y="38.37" text-anchor="end" dy="0.35em">0.0</text>
    <text x="77.9" y="26.67" text-anchor="end" dy="0.35em">0.5</text>
    <text x="77.9" y="14.98" text-anchor="end" dy="0.35em">1.0</text>
  </g>
  <g font-size="4.23" font-family="'Latin Modern Math','Latin-Modern',serif" fill="#564A55" stroke="#000000" stroke-opacity="0.000" id="fig-331b20603b4843b1b3071c30e28a1365-element-67">
    <text x="68.99" y="24.67" text-anchor="middle" dy="0.35em" transform="rotate(-90, 68.99, 26.67)">p0(a)</text>
  </g>
  <g font-size="4.23" font-family="'Latin Modern Math','Latin-Modern',serif" fill="#564A55" stroke="#000000" stroke-opacity="0.000" id="fig-331b20603b4843b1b3071c30e28a1365-element-68">
    <text x="96.95" y="10.98" text-anchor="middle">Prior</text>
  </g>
</g>
<g class="plotroot yscalable" id="fig-331b20603b4843b1b3071c30e28a1365-element-69">
  <g font-size="4.23" font-family="'Latin Modern Math','Latin-Modern',serif" fill="#564A55" stroke="#000000" stroke-opacity="0.000" id="fig-331b20603b4843b1b3071c30e28a1365-element-70">
    <text x="35.77" y="48.02" text-anchor="middle" dy="0.6em">a</text>
  </g>
  <g class="guide xlabels" font-size="2.82" font-family="'Latin Modern Math','Latin-Modern',serif" fill="#6C606B" id="fig-331b20603b4843b1b3071c30e28a1365-element-71">
    <text x="21.35" y="41.37" text-anchor="middle" dy="0.6em">a1</text>
    <text x="30.97" y="41.37" text-anchor="middle" dy="0.6em">a2</text>
    <text x="40.58" y="41.37" text-anchor="middle" dy="0.6em">a3</text>
    <text x="50.19" y="41.37" text-anchor="middle" dy="0.6em">a4</text>
  </g>
  <g clip-path="url(#fig-331b20603b4843b1b3071c30e28a1365-element-73)" id="fig-331b20603b4843b1b3071c30e28a1365-element-72">
    <g pointer-events="visible" opacity="1" fill="#000000" fill-opacity="0.000" stroke="#000000" stroke-opacity="0.000" class="guide background" id="fig-331b20603b4843b1b3071c30e28a1365-element-74">
      <rect x="16.55" y="12.98" width="38.45" height="27.39"/>
    </g>
    <g class="guide ygridlines xfixed" stroke-dasharray="0.5,0.5" stroke-width="0.2" stroke="#D0D0E0" id="fig-331b20603b4843b1b3071c30e28a1365-element-75">
      <path fill="none" d="M16.55,38.37 L 55 38.37"/>
      <path fill="none" d="M16.55,32.52 L 55 32.52"/>
      <path fill="none" d="M16.55,26.67 L 55 26.67"/>
      <path fill="none" d="M16.55,20.83 L 55 20.83"/>
      <path fill="none" d="M16.55,14.98 L 55 14.98"/>
    </g>
    <g class="guide xgridlines yfixed" stroke-dasharray="0.5,0.5" stroke-width="0.2" stroke="#D0D0E0" id="fig-331b20603b4843b1b3071c30e28a1365-element-76">
      <path fill="none" d="M26.16,12.98 L 26.16 40.37"/>
      <path fill="none" d="M35.77,12.98 L 35.77 40.37"/>
      <path fill="none" d="M45.39,12.98 L 45.39 40.37"/>
    </g>
    <g class="plotpanel" id="fig-331b20603b4843b1b3071c30e28a1365-element-77">
      <g shape-rendering="crispEdges" stroke-width="0.3" id="fig-331b20603b4843b1b3071c30e28a1365-element-78">
        <g stroke="#000000" stroke-opacity="0.000" fill="#00BFFF" class="geometry" id="fig-331b20603b4843b1b3071c30e28a1365-element-79">
          <rect x="16.72" y="20.83" width="9.26" height="17.54"/>
          <rect x="26.34" y="38.25" width="9.26" height="0.12"/>
          <rect x="35.95" y="32.52" width="9.26" height="5.85"/>
          <rect x="45.56" y="20.24" width="9.26" height="18.12"/>
        </g>
      </g>
    </g>
  </g>
  <g class="guide ylabels" font-size="2.82" font-family="'Latin Modern Math','Latin-Modern',serif" fill="#6C606B" id="fig-331b20603b4843b1b3071c30e28a1365-element-80">
    <text x="15.55" y="38.37" text-anchor="end" dy="0.35em">0</text>
    <text x="15.55" y="32.52" text-anchor="end" dy="0.35em">1</text>
    <text x="15.55" y="26.67" text-anchor="end" dy="0.35em">2</text>
    <text x="15.55" y="20.83" text-anchor="end" dy="0.35em">3</text>
    <text x="15.55" y="14.98" text-anchor="end" dy="0.35em">4</text>
  </g>
  <g font-size="4.23" font-family="'Latin Modern Math','Latin-Modern',serif" fill="#564A55" stroke="#000000" stroke-opacity="0.000" id="fig-331b20603b4843b1b3071c30e28a1365-element-81">
    <text x="8.99" y="24.67" text-anchor="middle" dy="0.35em" transform="rotate(-90, 8.99, 26.67)">U(a,w)</text>
  </g>
  <g font-size="4.23" font-family="'Latin Modern Math','Latin-Modern',serif" fill="#564A55" stroke="#000000" stroke-opacity="0.000" id="fig-331b20603b4843b1b3071c30e28a1365-element-82">
    <text x="35.77" y="10.98" text-anchor="middle">Utility</text>
  </g>
</g>
<defs>
<clipPath id="fig-331b20603b4843b1b3071c30e28a1365-element-59">
  <path d="M78.9,12.98 L 115 12.98 115 40.37 78.9 40.37" />
</clipPath
><clipPath id="fig-331b20603b4843b1b3071c30e28a1365-element-73">
  <path d="M16.55,12.98 L 55 12.98 55 40.37 16.55 40.37" />
</clipPath
><clipPath id="fig-331b20603b4843b1b3071c30e28a1365-element-5">
  <path d="M140.89,72.98 L 175 72.98 175 100.37 140.89 100.37" />
</clipPath
><clipPath id="fig-331b20603b4843b1b3071c30e28a1365-element-32">
  <path d="M18.9,72.98 L 55 72.98 55 100.37 18.9 100.37" />
</clipPath
><clipPath id="fig-331b20603b4843b1b3071c30e28a1365-element-46">
  <path d="M138.9,12.98 L 175 12.98 175 40.37 138.9 40.37" />
</clipPath
><clipPath id="fig-331b20603b4843b1b3071c30e28a1365-element-18">
  <path d="M78.9,72.98 L 115 72.98 115 100.37 78.9 100.37" />
</clipPath
></defs>
</svg>
