<?xml version="1.0" encoding="UTF-8"?>
<svg xmlns="http://www.w3.org/2000/svg"
     xmlns:xlink="http://www.w3.org/1999/xlink"
     xmlns:gadfly="http://www.gadflyjl.org/ns"
     version="1.2"
     width="100mm" height="90mm" viewBox="0 0 100 90"
     stroke="none"
     fill="#000000"
     stroke-width="0.3"
     font-size="3.88"
>
<g class="plotroot" id="fig-de35584e64cd419f8d18a935b153e053-element-1">
  <g font-size="4.23" font-family="'Latin Modern Math','Latin-Modern',serif" fill="#564A55" stroke="#000000" stroke-opacity="0.000" id="fig-de35584e64cd419f8d18a935b153e053-element-2">
    <text x="64.06" y="82" text-anchor="middle">Observation o</text>
  </g>
  <g class="guide xlabels" font-size="2.82" font-family="'Latin Modern Math','Latin-Modern',serif" fill="#6C606B" id="fig-de35584e64cd419f8d18a935b153e053-element-3">
    <text x="45.24" y="50.65" text-anchor="end" dy="0.35em" transform="rotate(-90, 45.24, 50.65)">Laptop</text>
    <text x="48.38" y="50.65" text-anchor="end" dy="0.35em" transform="rotate(-90, 48.38, 50.65)">Monitor</text>
    <text x="51.51" y="50.65" text-anchor="end" dy="0.35em" transform="rotate(-90, 51.51, 50.65)">Gamepad</text>
    <text x="54.65" y="50.65" text-anchor="end" dy="0.35em" transform="rotate(-90, 54.65, 50.65)">Coffee machine</text>
    <text x="57.79" y="50.65" text-anchor="end" dy="0.35em" transform="rotate(-90, 57.79, 50.65)">Vaccuum cleaner</text>
    <text x="60.92" y="50.65" text-anchor="end" dy="0.35em" transform="rotate(-90, 60.92, 50.65)">Electric toothbrush</text>
    <text x="64.06" y="50.65" text-anchor="end" dy="0.35em" transform="rotate(-90, 64.06, 50.65)">Grapes</text>
    <text x="67.19" y="50.65" text-anchor="end" dy="0.35em" transform="rotate(-90, 67.19, 50.65)">Strawberries</text>
    <text x="70.33" y="50.65" text-anchor="end" dy="0.35em" transform="rotate(-90, 70.33, 50.65)">Limes</text>
    <text x="73.47" y="50.65" text-anchor="end" dy="0.35em" transform="rotate(-90, 73.47, 50.65)">Pancake mix</text>
    <text x="76.6" y="50.65" text-anchor="end" dy="0.35em" transform="rotate(-90, 76.6, 50.65)">Baking soda</text>
    <text x="79.74" y="50.65" text-anchor="end" dy="0.35em" transform="rotate(-90, 79.74, 50.65)">Baker's yeast</text>
    <text x="82.87" y="50.65" text-anchor="end" dy="0.35em" transform="rotate(-90, 82.87, 50.65)">Muffin cups</text>
  </g>
  <g class="guide colorkey" id="fig-de35584e64cd419f8d18a935b153e053-element-4">
    <g font-size="3.53" font-family="'Latin Modern Math','Latin-Modern',serif" fill="#4C404B" id="fig-de35584e64cd419f8d18a935b153e053-element-5">
      <text x="89.1" y="23.69" dy="0.35em">1.0</text>
      <text x="89.1" y="46.26" dy="0.35em">0.0</text>
      <text x="89.1" y="34.97" dy="0.35em">0.5</text>
    </g>
    <g shape-rendering="crispEdges" stroke="#000000" stroke-opacity="0.000" id="fig-de35584e64cd419f8d18a935b153e053-element-6">
      <rect x="86.44" y="45.7" width="1.66" height="0.56" fill="#FFF1EF"/>
      <rect x="86.44" y="45.13" width="1.66" height="0.56" fill="#FFEEEA"/>
      <rect x="86.44" y="44.57" width="1.66" height="0.56" fill="#FFEAE6"/>
      <rect x="86.44" y="44" width="1.66" height="0.56" fill="#FFE6E1"/>
      <rect x="86.44" y="43.44" width="1.66" height="0.56" fill="#FFE2DD"/>
      <rect x="86.44" y="42.88" width="1.66" height="0.56" fill="#FFDDD8"/>
      <rect x="86.44" y="42.31" width="1.66" height="0.56" fill="#FFD9D3"/>
      <rect x="86.44" y="41.75" width="1.66" height="0.56" fill="#FFD4CE"/>
      <rect x="86.44" y="41.18" width="1.66" height="0.56" fill="#FFCFC8"/>
      <rect x="86.44" y="40.62" width="1.66" height="0.56" fill="#FFCBC3"/>
      <rect x="86.44" y="40.05" width="1.66" height="0.56" fill="#FFC5BE"/>
      <rect x="86.44" y="39.49" width="1.66" height="0.56" fill="#FFC0B8"/>
      <rect x="86.44" y="38.93" width="1.66" height="0.56" fill="#FFBBB2"/>
      <rect x="86.44" y="38.36" width="1.66" height="0.56" fill="#FFB5AC"/>
      <rect x="86.44" y="37.8" width="1.66" height="0.56" fill="#FFAFA6"/>
      <rect x="86.44" y="37.23" width="1.66" height="0.56" fill="#FFA9A0"/>
      <rect x="86.44" y="36.67" width="1.66" height="0.56" fill="#FFA29A"/>
      <rect x="86.44" y="36.1" width="1.66" height="0.56" fill="#FF9C94"/>
      <rect x="86.44" y="35.54" width="1.66" height="0.56" fill="#FF958D"/>
      <rect x="86.44" y="34.97" width="1.66" height="0.56" fill="#FF8E86"/>
      <rect x="86.44" y="34.41" width="1.66" height="0.56" fill="#FF867F"/>
      <rect x="86.44" y="33.85" width="1.66" height="0.56" fill="#FF7E78"/>
      <rect x="86.44" y="33.28" width="1.66" height="0.56" fill="#FF7671"/>
      <rect x="86.44" y="32.72" width="1.66" height="0.56" fill="#FF6D69"/>
      <rect x="86.44" y="32.15" width="1.66" height="0.56" fill="#FC6361"/>
      <rect x="86.44" y="31.59" width="1.66" height="0.56" fill="#FA5959"/>
      <rect x="86.44" y="31.02" width="1.66" height="0.56" fill="#F74E4F"/>
      <rect x="86.44" y="30.46" width="1.66" height="0.56" fill="#F34445"/>
      <rect x="86.44" y="29.9" width="1.66" height="0.56" fill="#EC3B3C"/>
      <rect x="86.44" y="29.33" width="1.66" height="0.56" fill="#E43436"/>
      <rect x="86.44" y="28.77" width="1.66" height="0.56" fill="#DA2E2F"/>
      <rect x="86.44" y="28.2" width="1.66" height="0.56" fill="#D0292A"/>
      <rect x="86.44" y="27.64" width="1.66" height="0.56" fill="#C52425"/>
      <rect x="86.44" y="27.07" width="1.66" height="0.56" fill="#BA1F20"/>
      <rect x="86.44" y="26.51" width="1.66" height="0.56" fill="#AE1B1C"/>
      <rect x="86.44" y="25.95" width="1.66" height="0.56" fill="#A21719"/>
      <rect x="86.44" y="25.38" width="1.66" height="0.56" fill="#951415"/>
      <rect x="86.44" y="24.82" width="1.66" height="0.56" fill="#881112"/>
      <rect x="86.44" y="24.25" width="1.66" height="0.56" fill="#7A0F10"/>
      <rect x="86.44" y="23.69" width="1.66" height="0.56" fill="#6C0D0E"/>
      <g stroke="#FFFFFF" stroke-width="0.2" id="fig-de35584e64cd419f8d18a935b153e053-element-7">
        <path fill="none" d="M86.44,23.69 L 88.1 23.69"/>
        <path fill="none" d="M86.44,46.26 L 88.1 46.26"/>
        <path fill="none" d="M86.44,34.97 L 88.1 34.97"/>
      </g>
    </g>
    <g fill="#362A35" font-size="3.88" font-family="'Latin Modern Math','Latin-Modern',serif" stroke="#000000" stroke-opacity="0.000" id="fig-de35584e64cd419f8d18a935b153e053-element-8">
      <text x="86.44" y="19.69">p(a|o)</text>
    </g>
  </g>
  <g clip-path="url(#fig-de35584e64cd419f8d18a935b153e053-element-10)" id="fig-de35584e64cd419f8d18a935b153e053-element-9">
    <g pointer-events="visible" opacity="1" fill="#000000" fill-opacity="0.000" stroke="#000000" stroke-opacity="0.000" class="guide background" id="fig-de35584e64cd419f8d18a935b153e053-element-11">
      <rect x="43.67" y="5" width="40.77" height="44.65"/>
    </g>
    <g class="guide ygridlines xfixed" stroke-dasharray="0.5,0.5" stroke-width="0.2" stroke="#D0D0E0" id="fig-de35584e64cd419f8d18a935b153e053-element-12">
      <path fill="none" d="M43.67,47.3 L 84.44 47.3"/>
      <path fill="none" d="M43.67,44.95 L 84.44 44.95"/>
      <path fill="none" d="M43.67,42.6 L 84.44 42.6"/>
      <path fill="none" d="M43.67,40.25 L 84.44 40.25"/>
      <path fill="none" d="M43.67,37.9 L 84.44 37.9"/>
      <path fill="none" d="M43.67,35.55 L 84.44 35.55"/>
      <path fill="none" d="M43.67,33.2 L 84.44 33.2"/>
      <path fill="none" d="M43.67,30.85 L 84.44 30.85"/>
      <path fill="none" d="M43.67,28.5 L 84.44 28.5"/>
      <path fill="none" d="M43.67,26.15 L 84.44 26.15"/>
      <path fill="none" d="M43.67,23.8 L 84.44 23.8"/>
      <path fill="none" d="M43.67,21.45 L 84.44 21.45"/>
      <path fill="none" d="M43.67,19.1 L 84.44 19.1"/>
      <path fill="none" d="M43.67,16.75 L 84.44 16.75"/>
      <path fill="none" d="M43.67,14.4 L 84.44 14.4"/>
      <path fill="none" d="M43.67,12.05 L 84.44 12.05"/>
      <path fill="none" d="M43.67,9.7 L 84.44 9.7"/>
      <path fill="none" d="M43.67,7.35 L 84.44 7.35"/>
    </g>
    <g class="guide xgridlines yfixed" stroke-dasharray="0.5,0.5" stroke-width="0.2" stroke="#D0D0E0" id="fig-de35584e64cd419f8d18a935b153e053-element-13">
      <path fill="none" d="M46.81,5 L 46.81 49.65"/>
      <path fill="none" d="M49.95,5 L 49.95 49.65"/>
      <path fill="none" d="M53.08,5 L 53.08 49.65"/>
      <path fill="none" d="M56.22,5 L 56.22 49.65"/>
      <path fill="none" d="M59.35,5 L 59.35 49.65"/>
      <path fill="none" d="M62.49,5 L 62.49 49.65"/>
      <path fill="none" d="M65.63,5 L 65.63 49.65"/>
      <path fill="none" d="M68.76,5 L 68.76 49.65"/>
      <path fill="none" d="M71.9,5 L 71.9 49.65"/>
      <path fill="none" d="M75.03,5 L 75.03 49.65"/>
      <path fill="none" d="M78.17,5 L 78.17 49.65"/>
      <path fill="none" d="M81.31,5 L 81.31 49.65"/>
    </g>
    <g class="plotpanel" id="fig-de35584e64cd419f8d18a935b153e053-element-14">
      <g shape-rendering="crispEdges" class="geometry" stroke="#000000" stroke-opacity="0.000" id="fig-de35584e64cd419f8d18a935b153e053-element-15">
        <rect x="43.67" y="46.95" width="2.78" height="2.7" fill="#FF7470"/>
        <rect x="43.67" y="44.6" width="2.78" height="2.7" fill="#FFEFED"/>
        <rect x="43.67" y="42.25" width="2.78" height="2.7" fill="#FFF0ED"/>
        <rect x="43.67" y="39.9" width="2.78" height="2.7" fill="#FFF0ED"/>
        <rect x="43.67" y="37.55" width="2.78" height="2.7" fill="#FFF0ED"/>
        <rect x="43.67" y="35.2" width="2.78" height="2.7" fill="#FFF0ED"/>
        <rect x="43.67" y="32.85" width="2.78" height="2.7" fill="#FFF0ED"/>
        <rect x="43.67" y="30.5" width="2.78" height="2.7" fill="#FFF0EE"/>
        <rect x="43.67" y="28.15" width="2.78" height="2.7" fill="#FFF1EE"/>
        <rect x="43.67" y="25.8" width="2.78" height="2.7" fill="#FFF1EE"/>
        <rect x="43.67" y="23.45" width="2.78" height="2.7" fill="#FFF0ED"/>
        <rect x="43.67" y="21.1" width="2.78" height="2.7" fill="#FFEDE9"/>
        <rect x="43.67" y="18.75" width="2.78" height="2.7" fill="#FFF1EF"/>
        <rect x="43.67" y="16.4" width="2.78" height="2.7" fill="#FFD2CB"/>
        <rect x="43.67" y="14.05" width="2.78" height="2.7" fill="#FFF0ED"/>
        <rect x="43.67" y="11.7" width="2.78" height="2.7" fill="#FFECE9"/>
        <rect x="43.67" y="9.35" width="2.78" height="2.7" fill="#FFEFEC"/>
        <rect x="43.67" y="7" width="2.78" height="2.7" fill="#FFEBE8"/>
        <rect x="43.67" y="4.65" width="2.78" height="2.7" fill="#FFF1EE"/>
        <rect x="46.81" y="46.95" width="2.78" height="2.7" fill="#FFF0ED"/>
        <rect x="46.81" y="44.6" width="2.78" height="2.7" fill="#FF6F6C"/>
        <rect x="46.81" y="42.25" width="2.78" height="2.7" fill="#FFF0ED"/>
        <rect x="46.81" y="39.9" width="2.78" height="2.7" fill="#FFF0ED"/>
        <rect x="46.81" y="37.55" width="2.78" height="2.7" fill="#FFF0ED"/>
        <rect x="46.81" y="35.2" width="2.78" height="2.7" fill="#FFEFED"/>
        <rect x="46.81" y="32.85" width="2.78" height="2.7" fill="#FFF0ED"/>
        <rect x="46.81" y="30.5" width="2.78" height="2.7" fill="#FFF0EE"/>
        <rect x="46.81" y="28.15" width="2.78" height="2.7" fill="#FFF1EE"/>
        <rect x="46.81" y="25.8" width="2.78" height="2.7" fill="#FFF1EE"/>
        <rect x="46.81" y="23.45" width="2.78" height="2.7" fill="#FFF0ED"/>
        <rect x="46.81" y="21.1" width="2.78" height="2.7" fill="#FFECE9"/>
        <rect x="46.81" y="18.75" width="2.78" height="2.7" fill="#FFF1EF"/>
        <rect x="46.81" y="16.4" width="2.78" height="2.7" fill="#FFD3CD"/>
        <rect x="46.81" y="14.05" width="2.78" height="2.7" fill="#FFF0ED"/>
        <rect x="46.81" y="11.7" width="2.78" height="2.7" fill="#FFEDEA"/>
        <rect x="46.81" y="9.35" width="2.78" height="2.7" fill="#FFF0ED"/>
        <rect x="46.81" y="7" width="2.78" height="2.7" fill="#FFEBE8"/>
        <rect x="46.81" y="4.65" width="2.78" height="2.7" fill="#FFF1EE"/>
        <rect x="49.95" y="46.95" width="2.78" height="2.7" fill="#FFF0ED"/>
        <rect x="49.95" y="44.6" width="2.78" height="2.7" fill="#FFF0ED"/>
        <rect x="49.95" y="42.25" width="2.78" height="2.7" fill="#FF6E6A"/>
        <rect x="49.95" y="39.9" width="2.78" height="2.7" fill="#FFF0ED"/>
        <rect x="49.95" y="37.55" width="2.78" height="2.7" fill="#FFF0ED"/>
        <rect x="49.95" y="35.2" width="2.78" height="2.7" fill="#FFF0ED"/>
        <rect x="49.95" y="32.85" width="2.78" height="2.7" fill="#FFF0EE"/>
        <rect x="49.95" y="30.5" width="2.78" height="2.7" fill="#FFF1EE"/>
        <rect x="49.95" y="28.15" width="2.78" height="2.7" fill="#FFF0EE"/>
        <rect x="49.95" y="25.8" width="2.78" height="2.7" fill="#FFF1EE"/>
        <rect x="49.95" y="23.45" width="2.78" height="2.7" fill="#FFF0ED"/>
        <rect x="49.95" y="21.1" width="2.78" height="2.7" fill="#FFEDEA"/>
        <rect x="49.95" y="18.75" width="2.78" height="2.7" fill="#FFF1EF"/>
        <rect x="49.95" y="16.4" width="2.78" height="2.7" fill="#FFD3CC"/>
        <rect x="49.95" y="14.05" width="2.78" height="2.7" fill="#FFF0ED"/>
        <rect x="49.95" y="11.7" width="2.78" height="2.7" fill="#FFECE9"/>
        <rect x="49.95" y="9.35" width="2.78" height="2.7" fill="#FFF0ED"/>
        <rect x="49.95" y="7" width="2.78" height="2.7" fill="#FFEBE8"/>
        <rect x="49.95" y="4.65" width="2.78" height="2.7" fill="#FFF1EE"/>
        <rect x="53.08" y="46.95" width="2.78" height="2.7" fill="#FFF0ED"/>
        <rect x="53.08" y="44.6" width="2.78" height="2.7" fill="#FFF0ED"/>
        <rect x="53.08" y="42.25" width="2.78" height="2.7" fill="#FFEFEC"/>
        <rect x="53.08" y="39.9" width="2.78" height="2.7" fill="#FF7974"/>
        <rect x="53.08" y="37.55" width="2.78" height="2.7" fill="#FFF0ED"/>
        <rect x="53.08" y="35.2" width="2.78" height="2.7" fill="#FFF0ED"/>
        <rect x="53.08" y="32.85" width="2.78" height="2.7" fill="#FFF0EE"/>
        <rect x="53.08" y="30.5" width="2.78" height="2.7" fill="#FFF1EE"/>
        <rect x="53.08" y="28.15" width="2.78" height="2.7" fill="#FFF0EE"/>
        <rect x="53.08" y="25.8" width="2.78" height="2.7" fill="#FFF1EE"/>
        <rect x="53.08" y="23.45" width="2.78" height="2.7" fill="#FFF0ED"/>
        <rect x="53.08" y="21.1" width="2.78" height="2.7" fill="#FFEDEA"/>
        <rect x="53.08" y="18.75" width="2.78" height="2.7" fill="#FFF1EF"/>
        <rect x="53.08" y="16.4" width="2.78" height="2.7" fill="#FFF0ED"/>
        <rect x="53.08" y="14.05" width="2.78" height="2.7" fill="#FFCEC7"/>
        <rect x="53.08" y="11.7" width="2.78" height="2.7" fill="#FFECE9"/>
        <rect x="53.08" y="9.35" width="2.78" height="2.7" fill="#FFEFEC"/>
        <rect x="53.08" y="7" width="2.78" height="2.7" fill="#FFEBE7"/>
        <rect x="53.08" y="4.65" width="2.78" height="2.7" fill="#FFF1EE"/>
        <rect x="56.22" y="46.95" width="2.78" height="2.7" fill="#FFF0ED"/>
        <rect x="56.22" y="44.6" width="2.78" height="2.7" fill="#FFF0ED"/>
        <rect x="56.22" y="42.25" width="2.78" height="2.7" fill="#FFEFED"/>
        <rect x="56.22" y="39.9" width="2.78" height="2.7" fill="#FFF0ED"/>
        <rect x="56.22" y="37.55" width="2.78" height="2.7" fill="#FF7671"/>
        <rect x="56.22" y="35.2" width="2.78" height="2.7" fill="#FFF0ED"/>
        <rect x="56.22" y="32.85" width="2.78" height="2.7" fill="#FFF0EE"/>
        <rect x="56.22" y="30.5" width="2.78" height="2.7" fill="#FFF0EE"/>
        <rect x="56.22" y="28.15" width="2.78" height="2.7" fill="#FFF1EE"/>
        <rect x="56.22" y="25.8" width="2.78" height="2.7" fill="#FFF1EE"/>
        <rect x="56.22" y="23.45" width="2.78" height="2.7" fill="#FFF0ED"/>
        <rect x="56.22" y="21.1" width="2.78" height="2.7" fill="#FFEDEA"/>
        <rect x="56.22" y="18.75" width="2.78" height="2.7" fill="#FFF1EF"/>
        <rect x="56.22" y="16.4" width="2.78" height="2.7" fill="#FFF0ED"/>
        <rect x="56.22" y="14.05" width="2.78" height="2.7" fill="#FFCFC8"/>
        <rect x="56.22" y="11.7" width="2.78" height="2.7" fill="#FFECE9"/>
        <rect x="56.22" y="9.35" width="2.78" height="2.7" fill="#FFF0ED"/>
        <rect x="56.22" y="7" width="2.78" height="2.7" fill="#FFEBE8"/>
        <rect x="56.22" y="4.65" width="2.78" height="2.7" fill="#FFF1EE"/>
        <rect x="59.35" y="46.95" width="2.78" height="2.7" fill="#FFF0ED"/>
        <rect x="59.35" y="44.6" width="2.78" height="2.7" fill="#FFF0ED"/>
        <rect x="59.35" y="42.25" width="2.78" height="2.7" fill="#FFF0ED"/>
        <rect x="59.35" y="39.9" width="2.78" height="2.7" fill="#FFF0ED"/>
        <rect x="59.35" y="37.55" width="2.78" height="2.7" fill="#FFF0ED"/>
        <rect x="59.35" y="35.2" width="2.78" height="2.7" fill="#FF7873"/>
        <rect x="59.35" y="32.85" width="2.78" height="2.7" fill="#FFF0EE"/>
        <rect x="59.35" y="30.5" width="2.78" height="2.7" fill="#FFF0EE"/>
        <rect x="59.35" y="28.15" width="2.78" height="2.7" fill="#FFF0ED"/>
        <rect x="59.35" y="25.8" width="2.78" height="2.7" fill="#FFF1EE"/>
        <rect x="59.35" y="23.45" width="2.78" height="2.7" fill="#FFF0ED"/>
        <rect x="59.35" y="21.1" width="2.78" height="2.7" fill="#FFEDEA"/>
        <rect x="59.35" y="18.75" width="2.78" height="2.7" fill="#FFF1EF"/>
        <rect x="59.35" y="16.4" width="2.78" height="2.7" fill="#FFF0ED"/>
        <rect x="59.35" y="14.05" width="2.78" height="2.7" fill="#FFCFC8"/>
        <rect x="59.35" y="11.7" width="2.78" height="2.7" fill="#FFECE9"/>
        <rect x="59.35" y="9.35" width="2.78" height="2.7" fill="#FFF0ED"/>
        <rect x="59.35" y="7" width="2.78" height="2.7" fill="#FFECE8"/>
        <rect x="59.35" y="4.65" width="2.78" height="2.7" fill="#FFF1EE"/>
        <rect x="62.49" y="46.95" width="2.78" height="2.7" fill="#FFF0ED"/>
        <rect x="62.49" y="44.6" width="2.78" height="2.7" fill="#FFF0ED"/>
        <rect x="62.49" y="42.25" width="2.78" height="2.7" fill="#FFF0ED"/>
        <rect x="62.49" y="39.9" width="2.78" height="2.7" fill="#FFF0ED"/>
        <rect x="62.49" y="37.55" width="2.78" height="2.7" fill="#FFF0ED"/>
        <rect x="62.49" y="35.2" width="2.78" height="2.7" fill="#FFF0ED"/>
        <rect x="62.49" y="32.85" width="2.78" height="2.7" fill="#FFBEB6"/>
        <rect x="62.49" y="30.5" width="2.78" height="2.7" fill="#FFF0EE"/>
        <rect x="62.49" y="28.15" width="2.78" height="2.7" fill="#FFF1EE"/>
        <rect x="62.49" y="25.8" width="2.78" height="2.7" fill="#FFF1EE"/>
        <rect x="62.49" y="23.45" width="2.78" height="2.7" fill="#FFF0ED"/>
        <rect x="62.49" y="21.1" width="2.78" height="2.7" fill="#FFEDEA"/>
        <rect x="62.49" y="18.75" width="2.78" height="2.7" fill="#FFF1EF"/>
        <rect x="62.49" y="16.4" width="2.78" height="2.7" fill="#FFF0ED"/>
        <rect x="62.49" y="14.05" width="2.78" height="2.7" fill="#FFF0ED"/>
        <rect x="62.49" y="11.7" width="2.78" height="2.7" fill="#FF817B"/>
        <rect x="62.49" y="9.35" width="2.78" height="2.7" fill="#FFF0ED"/>
        <rect x="62.49" y="7" width="2.78" height="2.7" fill="#FFF1EE"/>
        <rect x="62.49" y="4.65" width="2.78" height="2.7" fill="#FFEDE9"/>
        <rect x="65.63" y="46.95" width="2.78" height="2.7" fill="#FFF0ED"/>
        <rect x="65.63" y="44.6" width="2.78" height="2.7" fill="#FFF0ED"/>
        <rect x="65.63" y="42.25" width="2.78" height="2.7" fill="#FFF0ED"/>
        <rect x="65.63" y="39.9" width="2.78" height="2.7" fill="#FFF0ED"/>
        <rect x="65.63" y="37.55" width="2.78" height="2.7" fill="#FFF0ED"/>
        <rect x="65.63" y="35.2" width="2.78" height="2.7" fill="#FFF0ED"/>
        <rect x="65.63" y="32.85" width="2.78" height="2.7" fill="#FFF1EE"/>
        <rect x="65.63" y="30.5" width="2.78" height="2.7" fill="#FFC1B9"/>
        <rect x="65.63" y="28.15" width="2.78" height="2.7" fill="#FFF1EE"/>
        <rect x="65.63" y="25.8" width="2.78" height="2.7" fill="#FFF1EE"/>
        <rect x="65.63" y="23.45" width="2.78" height="2.7" fill="#FFF0ED"/>
        <rect x="65.63" y="21.1" width="2.78" height="2.7" fill="#FFEEEA"/>
        <rect x="65.63" y="18.75" width="2.78" height="2.7" fill="#FFF1EF"/>
        <rect x="65.63" y="16.4" width="2.78" height="2.7" fill="#FFF0ED"/>
        <rect x="65.63" y="14.05" width="2.78" height="2.7" fill="#FFF0ED"/>
        <rect x="65.63" y="11.7" width="2.78" height="2.7" fill="#FF7D77"/>
        <rect x="65.63" y="9.35" width="2.78" height="2.7" fill="#FFF0ED"/>
        <rect x="65.63" y="7" width="2.78" height="2.7" fill="#FFF1EE"/>
        <rect x="65.63" y="4.65" width="2.78" height="2.7" fill="#FFEDE9"/>
        <rect x="68.76" y="46.95" width="2.78" height="2.7" fill="#FFF0ED"/>
        <rect x="68.76" y="44.6" width="2.78" height="2.7" fill="#FFF0ED"/>
        <rect x="68.76" y="42.25" width="2.78" height="2.7" fill="#FFF0ED"/>
        <rect x="68.76" y="39.9" width="2.78" height="2.7" fill="#FFF0ED"/>
        <rect x="68.76" y="37.55" width="2.78" height="2.7" fill="#FFF0ED"/>
        <rect x="68.76" y="35.2" width="2.78" height="2.7" fill="#FFF0ED"/>
        <rect x="68.76" y="32.85" width="2.78" height="2.7" fill="#FFF1EE"/>
        <rect x="68.76" y="30.5" width="2.78" height="2.7" fill="#FFF1EE"/>
        <rect x="68.76" y="28.15" width="2.78" height="2.7" fill="#FFC1B9"/>
        <rect x="68.76" y="25.8" width="2.78" height="2.7" fill="#FFF1EE"/>
        <rect x="68.76" y="23.45" width="2.78" height="2.7" fill="#FFF0ED"/>
        <rect x="68.76" y="21.1" width="2.78" height="2.7" fill="#FFEDEA"/>
        <rect x="68.76" y="18.75" width="2.78" height="2.7" fill="#FFF1EF"/>
        <rect x="68.76" y="16.4" width="2.78" height="2.7" fill="#FFF0ED"/>
        <rect x="68.76" y="14.05" width="2.78" height="2.7" fill="#FFF0ED"/>
        <rect x="68.76" y="11.7" width="2.78" height="2.7" fill="#FF7D77"/>
        <rect x="68.76" y="9.35" width="2.78" height="2.7" fill="#FFF0ED"/>
        <rect x="68.76" y="7" width="2.78" height="2.7" fill="#FFF1EE"/>
        <rect x="68.76" y="4.65" width="2.78" height="2.7" fill="#FFEDE9"/>
        <rect x="71.9" y="46.95" width="2.78" height="2.7" fill="#FFF0ED"/>
        <rect x="71.9" y="44.6" width="2.78" height="2.7" fill="#FFF0ED"/>
        <rect x="71.9" y="42.25" width="2.78" height="2.7" fill="#FFF0ED"/>
        <rect x="71.9" y="39.9" width="2.78" height="2.7" fill="#FFF0ED"/>
        <rect x="71.9" y="37.55" width="2.78" height="2.7" fill="#FFF0ED"/>
        <rect x="71.9" y="35.2" width="2.78" height="2.7" fill="#FFF0ED"/>
        <rect x="71.9" y="32.85" width="2.78" height="2.7" fill="#FFF1EE"/>
        <rect x="71.9" y="30.5" width="2.78" height="2.7" fill="#FFF1EE"/>
        <rect x="71.9" y="28.15" width="2.78" height="2.7" fill="#FFF1EE"/>
        <rect x="71.9" y="25.8" width="2.78" height="2.7" fill="#FFD2CC"/>
        <rect x="71.9" y="23.45" width="2.78" height="2.7" fill="#FFF0EE"/>
        <rect x="71.9" y="21.1" width="2.78" height="2.7" fill="#FFEEEB"/>
        <rect x="71.9" y="18.75" width="2.78" height="2.7" fill="#FFF1EF"/>
        <rect x="71.9" y="16.4" width="2.78" height="2.7" fill="#FFF0ED"/>
        <rect x="71.9" y="14.05" width="2.78" height="2.7" fill="#FFF0ED"/>
        <rect x="71.9" y="11.7" width="2.78" height="2.7" fill="#FF8D86"/>
        <rect x="71.9" y="9.35" width="2.78" height="2.7" fill="#FFD7D1"/>
        <rect x="71.9" y="7" width="2.78" height="2.7" fill="#FFF1EE"/>
        <rect x="71.9" y="4.65" width="2.78" height="2.7" fill="#FFEDEA"/>
        <rect x="75.03" y="46.95" width="2.78" height="2.7" fill="#FFF0ED"/>
        <rect x="75.03" y="44.6" width="2.78" height="2.7" fill="#FFF0ED"/>
        <rect x="75.03" y="42.25" width="2.78" height="2.7" fill="#FFF0ED"/>
        <rect x="75.03" y="39.9" width="2.78" height="2.7" fill="#FFF0ED"/>
        <rect x="75.03" y="37.55" width="2.78" height="2.7" fill="#FFF0ED"/>
        <rect x="75.03" y="35.2" width="2.78" height="2.7" fill="#FFEFED"/>
        <rect x="75.03" y="32.85" width="2.78" height="2.7" fill="#FFF0EE"/>
        <rect x="75.03" y="30.5" width="2.78" height="2.7" fill="#FFF0EE"/>
        <rect x="75.03" y="28.15" width="2.78" height="2.7" fill="#FFF0EE"/>
        <rect x="75.03" y="25.8" width="2.78" height="2.7" fill="#FFF1EE"/>
        <rect x="75.03" y="23.45" width="2.78" height="2.7" fill="#FF7A74"/>
        <rect x="75.03" y="21.1" width="2.78" height="2.7" fill="#FFEDEA"/>
        <rect x="75.03" y="18.75" width="2.78" height="2.7" fill="#FFF1EF"/>
        <rect x="75.03" y="16.4" width="2.78" height="2.7" fill="#FFF0ED"/>
        <rect x="75.03" y="14.05" width="2.78" height="2.7" fill="#FFF0ED"/>
        <rect x="75.03" y="11.7" width="2.78" height="2.7" fill="#FFECE8"/>
        <rect x="75.03" y="9.35" width="2.78" height="2.7" fill="#FFCEC7"/>
        <rect x="75.03" y="7" width="2.78" height="2.7" fill="#FFF1EE"/>
        <rect x="75.03" y="4.65" width="2.78" height="2.7" fill="#FFECE8"/>
        <rect x="78.17" y="46.95" width="2.78" height="2.7" fill="#FFF0EE"/>
        <rect x="78.17" y="44.6" width="2.78" height="2.7" fill="#FFF1EE"/>
        <rect x="78.17" y="42.25" width="2.78" height="2.7" fill="#FFF0EE"/>
        <rect x="78.17" y="39.9" width="2.78" height="2.7" fill="#FFF1EE"/>
        <rect x="78.17" y="37.55" width="2.78" height="2.7" fill="#FFF1EE"/>
        <rect x="78.17" y="35.2" width="2.78" height="2.7" fill="#FFF1EE"/>
        <rect x="78.17" y="32.85" width="2.78" height="2.7" fill="#FFF1EE"/>
        <rect x="78.17" y="30.5" width="2.78" height="2.7" fill="#FFF1EE"/>
        <rect x="78.17" y="28.15" width="2.78" height="2.7" fill="#FFF1EE"/>
        <rect x="78.17" y="25.8" width="2.78" height="2.7" fill="#FFF1EE"/>
        <rect x="78.17" y="23.45" width="2.78" height="2.7" fill="#FFF1EE"/>
        <rect x="78.17" y="21.1" width="2.78" height="2.7" fill="#D62C2D"/>
        <rect x="78.17" y="18.75" width="2.78" height="2.7" fill="#FFF1EF"/>
        <rect x="78.17" y="16.4" width="2.78" height="2.7" fill="#FFF1EE"/>
        <rect x="78.17" y="14.05" width="2.78" height="2.7" fill="#FFF1EE"/>
        <rect x="78.17" y="11.7" width="2.78" height="2.7" fill="#FFEEEB"/>
        <rect x="78.17" y="9.35" width="2.78" height="2.7" fill="#FFE0DB"/>
        <rect x="78.17" y="7" width="2.78" height="2.7" fill="#FFF1EE"/>
        <rect x="78.17" y="4.65" width="2.78" height="2.7" fill="#FFEFEC"/>
        <rect x="81.31" y="46.95" width="2.78" height="2.7" fill="#FFF1EE"/>
        <rect x="81.31" y="44.6" width="2.78" height="2.7" fill="#FFF0EE"/>
        <rect x="81.31" y="42.25" width="2.78" height="2.7" fill="#FFF1EE"/>
        <rect x="81.31" y="39.9" width="2.78" height="2.7" fill="#FFF1EE"/>
        <rect x="81.31" y="37.55" width="2.78" height="2.7" fill="#FFF1EE"/>
        <rect x="81.31" y="35.2" width="2.78" height="2.7" fill="#FFF0EE"/>
        <rect x="81.31" y="32.85" width="2.78" height="2.7" fill="#FFF1EE"/>
        <rect x="81.31" y="30.5" width="2.78" height="2.7" fill="#FFF1EE"/>
        <rect x="81.31" y="28.15" width="2.78" height="2.7" fill="#FFF1EE"/>
        <rect x="81.31" y="25.8" width="2.78" height="2.7" fill="#FFF1EE"/>
        <rect x="81.31" y="23.45" width="2.78" height="2.7" fill="#FFF1EE"/>
        <rect x="81.31" y="21.1" width="2.78" height="2.7" fill="#DD3031"/>
        <rect x="81.31" y="18.75" width="2.78" height="2.7" fill="#FFEDEA"/>
        <rect x="81.31" y="16.4" width="2.78" height="2.7" fill="#FFF1EE"/>
        <rect x="81.31" y="14.05" width="2.78" height="2.7" fill="#FFF0EE"/>
        <rect x="81.31" y="11.7" width="2.78" height="2.7" fill="#FFEFEC"/>
        <rect x="81.31" y="9.35" width="2.78" height="2.7" fill="#FFE2DD"/>
        <rect x="81.31" y="7" width="2.78" height="2.7" fill="#FFF1EE"/>
        <rect x="81.31" y="4.65" width="2.78" height="2.7" fill="#FFEFEB"/>
      </g>
    </g>
  </g>
  <g class="guide ylabels" font-size="2.82" font-family="'Latin Modern Math','Latin-Modern',serif" fill="#6C606B" id="fig-de35584e64cd419f8d18a935b153e053-element-16">
    <text x="42.67" y="48.48" text-anchor="end" dy="0.35em">Laptop sleeve</text>
    <text x="42.67" y="46.13" text-anchor="end" dy="0.35em">Monitor cable</text>
    <text x="42.67" y="43.78" text-anchor="end" dy="0.35em">Video game</text>
    <text x="42.67" y="41.43" text-anchor="end" dy="0.35em">Coffee capsules</text>
    <text x="42.67" y="39.08" text-anchor="end" dy="0.35em">Vaccuum cleaner bags</text>
    <text x="42.67" y="36.73" text-anchor="end" dy="0.35em">Brush heads</text>
    <text x="42.67" y="34.38" text-anchor="end" dy="0.35em">Cheese</text>
    <text x="42.67" y="32.03" text-anchor="end" dy="0.35em">Cream</text>
    <text x="42.67" y="29.68" text-anchor="end" dy="0.35em">Cane sugar</text>
    <text x="42.67" y="27.33" text-anchor="end" dy="0.35em">Maple syrup</text>
    <text x="42.67" y="24.98" text-anchor="end" dy="0.35em">Vinegar</text>
    <text x="42.67" y="22.63" text-anchor="end" dy="0.35em">Flour</text>
    <text x="42.67" y="20.28" text-anchor="end" dy="0.35em">Chocolate chips</text>
    <text x="42.67" y="17.93" text-anchor="end" dy="0.35em">COMPUTER</text>
    <text x="42.67" y="15.58" text-anchor="end" dy="0.35em">HOUSEHOLD</text>
    <text x="42.67" y="13.23" text-anchor="end" dy="0.35em">FRUIT</text>
    <text x="42.67" y="10.88" text-anchor="end" dy="0.35em">BAKING</text>
    <text x="42.67" y="8.53" text-anchor="end" dy="0.35em">Electronics</text>
    <text x="42.67" y="6.18" text-anchor="end" dy="0.35em">Food</text>
  </g>
  <g font-size="4.23" font-family="'Latin Modern Math','Latin-Modern',serif" fill="#564A55" stroke="#000000" stroke-opacity="0.000" id="fig-de35584e64cd419f8d18a935b153e053-element-17">
    <text x="8.99" y="25.33" text-anchor="middle" dy="0.35em" transform="rotate(-90, 8.99, 27.33)">Action a</text>
  </g>
</g>
<defs>
<clipPath id="fig-de35584e64cd419f8d18a935b153e053-element-10">
  <path d="M43.67,5 L 84.44 5 84.44 49.65 43.67 49.65" />
</clipPath
></defs>
</svg>
